solid Default
  facet normal 1.000000e+00 0.000000e+00 0.000000e+00
    outer loop
      vertex 1.831856e+01 -2.000000e+00 4.533600e+00
      vertex 1.831856e+01 2.000000e+00 1.500000e+00
      vertex 1.831856e+01 2.000000e+00 4.533600e+00
    endloop
  endfacet
  facet normal 1.000000e+00 0.000000e+00 0.000000e+00
    outer loop
      vertex 1.831856e+01 2.000000e+00 1.500000e+00
      vertex 1.831856e+01 -2.000000e+00 4.533600e+00
      vertex 1.831856e+01 -2.000000e+00 1.500000e+00
    endloop
  endfacet
  facet normal -5.702781e-17 -4.038802e-16 -1.000000e+00
    outer loop
      vertex -3.831856e+01 -4.474432e+01 2.842171e-14
      vertex -1.000000e+01 -1.000000e+01 2.842171e-14
      vertex 3.831856e+01 -4.474432e+01 2.842171e-14
    endloop
  endfacet
  facet normal -5.702781e-17 -4.038802e-16 -1.000000e+00
    outer loop
      vertex -1.000000e+01 -1.000000e+01 2.842171e-14
      vertex -3.831856e+01 -4.474432e+01 2.842171e-14
      vertex -3.831856e+01 4.474432e+01 0.000000e+00
    endloop
  endfacet
  facet normal -5.702781e-17 -4.038802e-16 -1.000000e+00
    outer loop
      vertex -1.000000e+01 -1.000000e+01 2.842171e-14
      vertex -3.831856e+01 4.474432e+01 0.000000e+00
      vertex -1.000000e+01 -2.000000e+00 2.842171e-14
    endloop
  endfacet
  facet normal -5.702781e-17 -4.038802e-16 -1.000000e+00
    outer loop
      vertex -1.000000e+01 -2.000000e+00 2.842171e-14
      vertex -3.831856e+01 4.474432e+01 0.000000e+00
      vertex -1.000000e+01 2.000000e+00 2.842171e-14
    endloop
  endfacet
  facet normal -5.702781e-17 -4.038802e-16 -1.000000e+00
    outer loop
      vertex -1.000000e+01 -2.000000e+00 2.842171e-14
      vertex -1.000000e+01 2.000000e+00 2.842171e-14
      vertex 1.000000e+01 -2.000000e+00 2.842171e-14
    endloop
  endfacet
  facet normal -5.702781e-17 -4.038802e-16 -1.000000e+00
    outer loop
      vertex -1.000000e+01 2.000000e+00 2.842171e-14
      vertex -3.831856e+01 4.474432e+01 0.000000e+00
      vertex -1.000000e+01 1.000000e+01 2.842171e-14
    endloop
  endfacet
  facet normal -5.702781e-17 -4.038802e-16 -1.000000e+00
    outer loop
      vertex -1.000000e+01 1.000000e+01 2.842171e-14
      vertex -3.831856e+01 4.474432e+01 0.000000e+00
      vertex 1.000000e+01 1.000000e+01 2.842171e-14
    endloop
  endfacet
  facet normal -5.702781e-17 -4.038802e-16 -1.000000e+00
    outer loop
      vertex 3.831856e+01 -4.474432e+01 2.842171e-14
      vertex 1.000000e+01 -1.000000e+01 2.842171e-14
      vertex 3.831856e+01 4.474432e+01 0.000000e+00
    endloop
  endfacet
  facet normal -5.702781e-17 -4.038802e-16 -1.000000e+00
    outer loop
      vertex 1.000000e+01 -1.000000e+01 2.842171e-14
      vertex 3.831856e+01 -4.474432e+01 2.842171e-14
      vertex -1.000000e+01 -1.000000e+01 2.842171e-14
    endloop
  endfacet
  facet normal -5.702781e-17 -4.038802e-16 -1.000000e+00
    outer loop
      vertex 3.831856e+01 4.474432e+01 0.000000e+00
      vertex 1.000000e+01 -1.000000e+01 2.842171e-14
      vertex 1.000000e+01 -2.000000e+00 2.842171e-14
    endloop
  endfacet
  facet normal -5.702781e-17 -4.038802e-16 -1.000000e+00
    outer loop
      vertex 3.831856e+01 4.474432e+01 0.000000e+00
      vertex 1.000000e+01 -2.000000e+00 2.842171e-14
      vertex 1.000000e+01 2.000000e+00 2.842171e-14
    endloop
  endfacet
  facet normal -5.702781e-17 -4.038802e-16 -1.000000e+00
    outer loop
      vertex 1.000000e+01 2.000000e+00 2.842171e-14
      vertex 1.000000e+01 -2.000000e+00 2.842171e-14
      vertex -1.000000e+01 2.000000e+00 2.842171e-14
    endloop
  endfacet
  facet normal -5.702781e-17 -4.038802e-16 -1.000000e+00
    outer loop
      vertex 3.831856e+01 4.474432e+01 0.000000e+00
      vertex 1.000000e+01 2.000000e+00 2.842171e-14
      vertex 1.000000e+01 1.000000e+01 2.842171e-14
    endloop
  endfacet
  facet normal -5.702781e-17 -4.038802e-16 -1.000000e+00
    outer loop
      vertex 3.831856e+01 4.474432e+01 0.000000e+00
      vertex 1.000000e+01 1.000000e+01 2.842171e-14
      vertex -3.831856e+01 4.474432e+01 0.000000e+00
    endloop
  endfacet
  facet normal 1.000000e+00 6.302401e-15 -6.260749e-16
    outer loop
      vertex 3.831856e+01 -4.474432e+01 2.842171e-14
      vertex 3.831856e+01 4.474432e+01 3.603359e+01
      vertex 3.831856e+01 -4.474432e+01 3.603359e+01
    endloop
  endfacet
  facet normal 1.000000e+00 6.302401e-15 -6.260749e-16
    outer loop
      vertex 3.831856e+01 4.474432e+01 3.603359e+01
      vertex 3.831856e+01 -4.474432e+01 2.842171e-14
      vertex 3.831856e+01 -1.400000e+01 4.533600e+00
    endloop
  endfacet
  facet normal 1.000000e+00 6.302401e-15 -6.260749e-16
    outer loop
      vertex 3.831856e+01 -1.400000e+01 4.533600e+00
      vertex 3.831856e+01 -4.474432e+01 2.842171e-14
      vertex 3.831856e+01 -1.400000e+01 1.500000e+00
    endloop
  endfacet
  facet normal 1.000000e+00 6.302401e-15 -6.260749e-16
    outer loop
      vertex 3.831856e+01 -1.400000e+01 1.500000e+00
      vertex 3.831856e+01 -4.474432e+01 2.842171e-14
      vertex 3.831856e+01 1.400000e+01 1.500000e+00
    endloop
  endfacet
  facet normal 1.000000e+00 6.302401e-15 -6.260749e-16
    outer loop
      vertex 3.831856e+01 4.474432e+01 3.603359e+01
      vertex 3.831856e+01 1.400000e+01 4.533600e+00
      vertex 3.831856e+01 4.474432e+01 0.000000e+00
    endloop
  endfacet
  facet normal 1.000000e+00 6.302401e-15 -6.260749e-16
    outer loop
      vertex 3.831856e+01 1.400000e+01 4.533600e+00
      vertex 3.831856e+01 4.474432e+01 3.603359e+01
      vertex 3.831856e+01 -1.400000e+01 4.533600e+00
    endloop
  endfacet
  facet normal 1.000000e+00 6.302401e-15 -6.260749e-16
    outer loop
      vertex 3.831856e+01 4.474432e+01 0.000000e+00
      vertex 3.831856e+01 1.400000e+01 4.533600e+00
      vertex 3.831856e+01 1.400000e+01 1.500000e+00
    endloop
  endfacet
  facet normal 1.000000e+00 6.302401e-15 -6.260749e-16
    outer loop
      vertex 3.831856e+01 4.474432e+01 0.000000e+00
      vertex 3.831856e+01 1.400000e+01 1.500000e+00
      vertex 3.831856e+01 -4.474432e+01 2.842171e-14
    endloop
  endfacet
  facet normal 0.000000e+00 -1.000000e+00 1.836970e-16
    outer loop
      vertex 1.831856e+01 -2.000000e+00 1.500000e+00
      vertex 1.000000e+01 -2.000000e+00 4.533600e+00
      vertex 1.000000e+01 -2.000000e+00 1.500000e+00
    endloop
  endfacet
  facet normal 0.000000e+00 -1.000000e+00 1.836970e-16
    outer loop
      vertex 1.000000e+01 -2.000000e+00 4.533600e+00
      vertex 1.831856e+01 -2.000000e+00 1.500000e+00
      vertex 1.831856e+01 -2.000000e+00 4.533600e+00
    endloop
  endfacet
  facet normal 0.000000e+00 -1.000000e+00 1.836970e-16
    outer loop
      vertex -1.000000e+01 -2.000000e+00 6.033600e+00
      vertex 1.000000e+01 -2.000000e+00 4.533600e+00
      vertex 1.000000e+01 -2.000000e+00 6.033600e+00
    endloop
  endfacet
  facet normal 0.000000e+00 -1.000000e+00 1.836970e-16
    outer loop
      vertex 1.000000e+01 -2.000000e+00 4.533600e+00
      vertex -1.000000e+01 -2.000000e+00 6.033600e+00
      vertex 1.000000e+01 -2.000000e+00 1.500000e+00
    endloop
  endfacet
  facet normal 0.000000e+00 -1.000000e+00 1.836970e-16
    outer loop
      vertex -1.598144e+01 -2.000000e+00 1.500000e+00
      vertex -1.000000e+01 -2.000000e+00 4.533600e+00
      vertex -1.598144e+01 -2.000000e+00 4.533600e+00
    endloop
  endfacet
  facet normal 0.000000e+00 -1.000000e+00 1.836970e-16
    outer loop
      vertex -1.000000e+01 -2.000000e+00 4.533600e+00
      vertex -1.598144e+01 -2.000000e+00 1.500000e+00
      vertex -1.000000e+01 -2.000000e+00 1.500000e+00
    endloop
  endfacet
  facet normal 0.000000e+00 -1.000000e+00 1.836970e-16
    outer loop
      vertex -1.000000e+01 -2.000000e+00 4.533600e+00
      vertex -1.000000e+01 -2.000000e+00 1.500000e+00
      vertex -1.000000e+01 -2.000000e+00 2.842171e-14
    endloop
  endfacet
  facet normal 0.000000e+00 -1.000000e+00 1.836970e-16
    outer loop
      vertex -1.000000e+01 -2.000000e+00 4.533600e+00
      vertex -1.000000e+01 -2.000000e+00 2.842171e-14
      vertex -1.000000e+01 -2.000000e+00 6.033600e+00
    endloop
  endfacet
  facet normal 0.000000e+00 -1.000000e+00 1.836970e-16
    outer loop
      vertex -1.000000e+01 -2.000000e+00 6.033600e+00
      vertex -1.000000e+01 -2.000000e+00 2.842171e-14
      vertex 1.000000e+01 -2.000000e+00 2.842171e-14
    endloop
  endfacet
  facet normal 0.000000e+00 -1.000000e+00 1.836970e-16
    outer loop
      vertex -1.000000e+01 -2.000000e+00 6.033600e+00
      vertex 1.000000e+01 -2.000000e+00 2.842171e-14
      vertex 1.000000e+01 -2.000000e+00 1.500000e+00
    endloop
  endfacet
  facet normal -1.135326e-15 1.000000e+00 -1.836970e-16
    outer loop
      vertex 1.831856e+01 2.000000e+00 4.533600e+00
      vertex 1.000000e+01 2.000000e+00 1.500000e+00
      vertex 1.000000e+01 2.000000e+00 4.533600e+00
    endloop
  endfacet
  facet normal -1.135326e-15 1.000000e+00 -1.836970e-16
    outer loop
      vertex 1.000000e+01 2.000000e+00 1.500000e+00
      vertex 1.831856e+01 2.000000e+00 4.533600e+00
      vertex 1.831856e+01 2.000000e+00 1.500000e+00
    endloop
  endfacet
  facet normal -1.135326e-15 1.000000e+00 -1.836970e-16
    outer loop
      vertex 1.000000e+01 2.000000e+00 6.033600e+00
      vertex -1.000000e+01 2.000000e+00 4.533600e+00
      vertex -1.000000e+01 2.000000e+00 6.033600e+00
    endloop
  endfacet
  facet normal -1.135326e-15 1.000000e+00 -1.836970e-16
    outer loop
      vertex -1.000000e+01 2.000000e+00 4.533600e+00
      vertex 1.000000e+01 2.000000e+00 6.033600e+00
      vertex -1.000000e+01 2.000000e+00 1.500000e+00
    endloop
  endfacet
  facet normal -1.135326e-15 1.000000e+00 -1.836970e-16
    outer loop
      vertex -1.000000e+01 2.000000e+00 1.500000e+00
      vertex 1.000000e+01 2.000000e+00 6.033600e+00
      vertex -1.000000e+01 2.000000e+00 2.842171e-14
    endloop
  endfacet
  facet normal -1.135326e-15 1.000000e+00 -1.836970e-16
    outer loop
      vertex -1.000000e+01 2.000000e+00 2.842171e-14
      vertex 1.000000e+01 2.000000e+00 6.033600e+00
      vertex 1.000000e+01 2.000000e+00 2.842171e-14
    endloop
  endfacet
  facet normal -1.135326e-15 1.000000e+00 -1.836970e-16
    outer loop
      vertex 1.000000e+01 2.000000e+00 2.842171e-14
      vertex 1.000000e+01 2.000000e+00 6.033600e+00
      vertex 1.000000e+01 2.000000e+00 4.533600e+00
    endloop
  endfacet
  facet normal -1.135326e-15 1.000000e+00 -1.836970e-16
    outer loop
      vertex 1.000000e+01 2.000000e+00 2.842171e-14
      vertex 1.000000e+01 2.000000e+00 4.533600e+00
      vertex 1.000000e+01 2.000000e+00 1.500000e+00
    endloop
  endfacet
  facet normal -1.135326e-15 1.000000e+00 -1.836970e-16
    outer loop
      vertex -1.598144e+01 2.000000e+00 4.533600e+00
      vertex -1.000000e+01 2.000000e+00 1.500000e+00
      vertex -1.598144e+01 2.000000e+00 1.500000e+00
    endloop
  endfacet
  facet normal -1.135326e-15 1.000000e+00 -1.836970e-16
    outer loop
      vertex -1.000000e+01 2.000000e+00 1.500000e+00
      vertex -1.598144e+01 2.000000e+00 4.533600e+00
      vertex -1.000000e+01 2.000000e+00 4.533600e+00
    endloop
  endfacet
  facet normal -1.000000e+00 -6.300516e-15 -1.809638e-17
    outer loop
      vertex 3.431856e+01 3.474432e+01 3.603359e+01
      vertex 3.431856e+01 -3.474432e+01 6.033600e+00
      vertex 3.431856e+01 -3.474432e+01 3.603359e+01
    endloop
  endfacet
  facet normal -1.000000e+00 -6.300516e-15 -1.809638e-17
    outer loop
      vertex 3.431856e+01 -3.474432e+01 6.033600e+00
      vertex 3.431856e+01 3.474432e+01 3.603359e+01
      vertex 3.431856e+01 3.474432e+01 6.033600e+00
    endloop
  endfacet
  facet normal -2.503164e-13 -1.000000e+00 -6.533797e-14
    outer loop
      vertex -3.431856e+01 -4.074432e+01 3.603359e+01
      vertex -2.831856e+01 -4.074432e+01 4.203359e+01
      vertex -3.431856e+01 -4.074432e+01 4.203359e+01
    endloop
  endfacet
  facet normal -2.503164e-13 -1.000000e+00 -6.533797e-14
    outer loop
      vertex -2.831856e+01 -4.074432e+01 4.203359e+01
      vertex -3.431856e+01 -4.074432e+01 3.603359e+01
      vertex -2.831856e+01 -4.074432e+01 3.603359e+01
    endloop
  endfacet
  facet normal 1.000000e+00 3.825860e-15 6.866587e-15
    outer loop
      vertex -3.431856e+01 -3.474432e+01 6.033600e+00
      vertex -3.431856e+01 3.474432e+01 3.603359e+01
      vertex -3.431856e+01 -3.474432e+01 3.603359e+01
    endloop
  endfacet
  facet normal 1.000000e+00 3.825860e-15 6.866587e-15
    outer loop
      vertex -3.431856e+01 3.474432e+01 3.603359e+01
      vertex -3.431856e+01 -3.474432e+01 6.033600e+00
      vertex -3.431856e+01 3.474432e+01 6.033600e+00
    endloop
  endfacet
  facet normal -6.300516e-15 1.000000e+00 -4.612528e-16
    outer loop
      vertex 3.431856e+01 4.074432e+01 4.203359e+01
      vertex 2.831856e+01 4.074432e+01 3.603359e+01
      vertex 2.831856e+01 4.074432e+01 4.203359e+01
    endloop
  endfacet
  facet normal -6.300516e-15 1.000000e+00 -4.612528e-16
    outer loop
      vertex 2.831856e+01 4.074432e+01 3.603359e+01
      vertex 3.431856e+01 4.074432e+01 4.203359e+01
      vertex 3.431856e+01 4.074432e+01 3.603359e+01
    endloop
  endfacet
  facet normal -8.569155e-15 1.000000e+00 5.178680e-15
    outer loop
      vertex 2.831856e+01 -4.074432e+01 3.603359e+01
      vertex -2.831856e+01 -4.074432e+01 6.033600e+00
      vertex -2.831856e+01 -4.074432e+01 3.603359e+01
    endloop
  endfacet
  facet normal -8.569155e-15 1.000000e+00 5.178680e-15
    outer loop
      vertex -2.831856e+01 -4.074432e+01 6.033600e+00
      vertex 2.831856e+01 -4.074432e+01 3.603359e+01
      vertex 2.831856e+01 -4.074432e+01 6.033600e+00
    endloop
  endfacet
  facet normal -6.300516e-15 1.000000e+00 -4.612528e-16
    outer loop
      vertex -3.431856e+01 4.074432e+01 4.203359e+01
      vertex -2.831856e+01 4.074432e+01 3.603359e+01
      vertex -3.431856e+01 4.074432e+01 3.603359e+01
    endloop
  endfacet
  facet normal -6.300516e-15 1.000000e+00 -4.612528e-16
    outer loop
      vertex -2.831856e+01 4.074432e+01 3.603359e+01
      vertex -3.431856e+01 4.074432e+01 4.203359e+01
      vertex -2.831856e+01 4.074432e+01 4.203359e+01
    endloop
  endfacet
  facet normal 6.300516e-15 -1.000000e+00 4.612528e-16
    outer loop
      vertex 2.831856e+01 -4.074432e+01 3.603359e+01
      vertex 3.431856e+01 -4.074432e+01 4.203359e+01
      vertex 2.831856e+01 -4.074432e+01 4.203359e+01
    endloop
  endfacet
  facet normal 6.300516e-15 -1.000000e+00 4.612528e-16
    outer loop
      vertex 3.431856e+01 -4.074432e+01 4.203359e+01
      vertex 2.831856e+01 -4.074432e+01 3.603359e+01
      vertex 3.431856e+01 -4.074432e+01 3.603359e+01
    endloop
  endfacet
  facet normal 1.000000e+00 4.659102e-15 2.630190e-14
    outer loop
      vertex -2.831856e+01 -4.074432e+01 4.203359e+01
      vertex -2.831856e+01 -3.474432e+01 6.033600e+00
      vertex -2.831856e+01 -3.474432e+01 4.203359e+01
    endloop
  endfacet
  facet normal 1.000000e+00 4.659102e-15 2.630190e-14
    outer loop
      vertex -2.831856e+01 -3.474432e+01 6.033600e+00
      vertex -2.831856e+01 -4.074432e+01 4.203359e+01
      vertex -2.831856e+01 -4.074432e+01 3.603359e+01
    endloop
  endfacet
  facet normal 1.000000e+00 4.659102e-15 2.630190e-14
    outer loop
      vertex -2.831856e+01 -3.474432e+01 6.033600e+00
      vertex -2.831856e+01 -4.074432e+01 3.603359e+01
      vertex -2.831856e+01 -4.074432e+01 6.033600e+00
    endloop
  endfacet
  facet normal -1.000000e+00 -3.052170e-13 -7.145724e-14
    outer loop
      vertex -3.431856e+01 -3.474432e+01 3.603359e+01
      vertex -3.431856e+01 -4.074432e+01 4.203359e+01
      vertex -3.431856e+01 -3.474432e+01 4.203359e+01
    endloop
  endfacet
  facet normal -1.000000e+00 -3.052170e-13 -7.145724e-14
    outer loop
      vertex -3.431856e+01 -4.074432e+01 4.203359e+01
      vertex -3.431856e+01 -3.474432e+01 3.603359e+01
      vertex -3.431856e+01 -4.074432e+01 3.603359e+01
    endloop
  endfacet
  facet normal -8.160785e-15 1.000000e+00 2.255913e-14
    outer loop
      vertex -2.831856e+01 -3.474432e+01 4.203359e+01
      vertex -3.431856e+01 -3.474432e+01 3.603359e+01
      vertex -3.431856e+01 -3.474432e+01 4.203359e+01
    endloop
  endfacet
  facet normal -8.160785e-15 1.000000e+00 2.255913e-14
    outer loop
      vertex -3.431856e+01 -3.474432e+01 3.603359e+01
      vertex -2.831856e+01 -3.474432e+01 4.203359e+01
      vertex -3.431856e+01 -3.474432e+01 6.033600e+00
    endloop
  endfacet
  facet normal -8.160785e-15 1.000000e+00 2.255913e-14
    outer loop
      vertex -3.431856e+01 -3.474432e+01 6.033600e+00
      vertex -2.831856e+01 -3.474432e+01 4.203359e+01
      vertex -2.831856e+01 -3.474432e+01 6.033600e+00
    endloop
  endfacet
  facet normal -1.693790e-14 -1.645854e-14 1.000000e+00
    outer loop
      vertex -2.831856e+01 -3.474432e+01 4.203359e+01
      vertex -3.431856e+01 -4.074432e+01 4.203359e+01
      vertex -2.831856e+01 -4.074432e+01 4.203359e+01
    endloop
  endfacet
  facet normal -1.693790e-14 -1.645854e-14 1.000000e+00
    outer loop
      vertex -3.431856e+01 -4.074432e+01 4.203359e+01
      vertex -2.831856e+01 -3.474432e+01 4.203359e+01
      vertex -3.431856e+01 -3.474432e+01 4.203359e+01
    endloop
  endfacet
  facet normal -1.809638e-17 4.612528e-16 1.000000e+00
    outer loop
      vertex 1.473409e+01 3.674432e+01 1.823360e+01
      vertex -4.664032e+00 4.474432e+01 1.823360e+01
      vertex -4.664032e+00 3.674432e+01 1.823360e+01
    endloop
  endfacet
  facet normal -1.809638e-17 4.612528e-16 1.000000e+00
    outer loop
      vertex -4.664032e+00 4.474432e+01 1.823360e+01
      vertex 1.473409e+01 3.674432e+01 1.823360e+01
      vertex 1.473409e+01 4.474432e+01 1.823360e+01
    endloop
  endfacet
  facet normal 3.777843e-16 8.114018e-16 1.000000e+00
    outer loop
      vertex 3.831856e+01 -4.474432e+01 3.603359e+01
      vertex 3.431856e+01 -4.074432e+01 3.603359e+01
      vertex -2.831856e+01 -4.074432e+01 3.603359e+01
    endloop
  endfacet
  facet normal 3.777843e-16 8.114018e-16 1.000000e+00
    outer loop
      vertex 3.431856e+01 -4.074432e+01 3.603359e+01
      vertex 3.831856e+01 -4.474432e+01 3.603359e+01
      vertex 3.831856e+01 4.474432e+01 3.603359e+01
    endloop
  endfacet
  facet normal 3.777843e-16 8.114018e-16 1.000000e+00
    outer loop
      vertex -2.831856e+01 -4.074432e+01 3.603359e+01
      vertex 3.431856e+01 -4.074432e+01 3.603359e+01
      vertex 2.831856e+01 -4.074432e+01 3.603359e+01
    endloop
  endfacet
  facet normal 3.777843e-16 8.114018e-16 1.000000e+00
    outer loop
      vertex 3.431856e+01 -4.074432e+01 3.603359e+01
      vertex 3.831856e+01 4.474432e+01 3.603359e+01
      vertex 3.431856e+01 -3.474432e+01 3.603359e+01
    endloop
  endfacet
  facet normal 3.777843e-16 8.114018e-16 1.000000e+00
    outer loop
      vertex 3.431856e+01 -3.474432e+01 3.603359e+01
      vertex 3.831856e+01 4.474432e+01 3.603359e+01
      vertex 3.431856e+01 3.474432e+01 3.603359e+01
    endloop
  endfacet
  facet normal 3.777843e-16 8.114018e-16 1.000000e+00
    outer loop
      vertex 3.431856e+01 3.474432e+01 3.603359e+01
      vertex 3.831856e+01 4.474432e+01 3.603359e+01
      vertex 3.431856e+01 4.074432e+01 3.603359e+01
    endloop
  endfacet
  facet normal 3.777843e-16 8.114018e-16 1.000000e+00
    outer loop
      vertex 3.431856e+01 4.074432e+01 3.603359e+01
      vertex 3.831856e+01 4.474432e+01 3.603359e+01
      vertex 2.380656e+01 4.474432e+01 3.603359e+01
    endloop
  endfacet
  facet normal 3.777843e-16 8.114018e-16 1.000000e+00
    outer loop
      vertex 2.831856e+01 3.674432e+01 3.603359e+01
      vertex 2.380656e+01 4.074432e+01 3.603359e+01
      vertex 2.380656e+01 3.674432e+01 3.603359e+01
    endloop
  endfacet
  facet normal 3.777843e-16 8.114018e-16 1.000000e+00
    outer loop
      vertex 2.380656e+01 4.074432e+01 3.603359e+01
      vertex 2.831856e+01 3.674432e+01 3.603359e+01
      vertex 2.831856e+01 4.074432e+01 3.603359e+01
    endloop
  endfacet
  facet normal 3.777843e-16 8.114018e-16 1.000000e+00
    outer loop
      vertex 2.380656e+01 4.074432e+01 3.603359e+01
      vertex 2.831856e+01 4.074432e+01 3.603359e+01
      vertex 2.380656e+01 4.474432e+01 3.603359e+01
    endloop
  endfacet
  facet normal 3.777843e-16 8.114018e-16 1.000000e+00
    outer loop
      vertex 2.380656e+01 4.474432e+01 3.603359e+01
      vertex 2.831856e+01 4.074432e+01 3.603359e+01
      vertex 3.431856e+01 4.074432e+01 3.603359e+01
    endloop
  endfacet
  facet normal 3.777843e-16 8.114018e-16 1.000000e+00
    outer loop
      vertex -1.730454e+01 3.674432e+01 3.603359e+01
      vertex -2.831856e+01 4.074432e+01 3.603359e+01
      vertex -2.831856e+01 3.674432e+01 3.603359e+01
    endloop
  endfacet
  facet normal 3.777843e-16 8.114018e-16 1.000000e+00
    outer loop
      vertex -2.831856e+01 4.074432e+01 3.603359e+01
      vertex -1.730454e+01 3.674432e+01 3.603359e+01
      vertex -1.730454e+01 4.474432e+01 3.603359e+01
    endloop
  endfacet
  facet normal 3.777843e-16 8.114018e-16 1.000000e+00
    outer loop
      vertex -2.831856e+01 4.074432e+01 3.603359e+01
      vertex -1.730454e+01 4.474432e+01 3.603359e+01
      vertex -3.831856e+01 4.474432e+01 3.603359e+01
    endloop
  endfacet
  facet normal 3.777843e-16 8.114018e-16 1.000000e+00
    outer loop
      vertex -3.831856e+01 -4.474432e+01 3.603359e+01
      vertex -3.431856e+01 -4.074432e+01 3.603359e+01
      vertex -3.831856e+01 4.474432e+01 3.603359e+01
    endloop
  endfacet
  facet normal 3.777843e-16 8.114018e-16 1.000000e+00
    outer loop
      vertex -3.431856e+01 -4.074432e+01 3.603359e+01
      vertex -3.831856e+01 -4.474432e+01 3.603359e+01
      vertex 3.831856e+01 -4.474432e+01 3.603359e+01
    endloop
  endfacet
  facet normal 3.777843e-16 8.114018e-16 1.000000e+00
    outer loop
      vertex -3.431856e+01 -4.074432e+01 3.603359e+01
      vertex 3.831856e+01 -4.474432e+01 3.603359e+01
      vertex -2.831856e+01 -4.074432e+01 3.603359e+01
    endloop
  endfacet
  facet normal 3.777843e-16 8.114018e-16 1.000000e+00
    outer loop
      vertex -3.831856e+01 4.474432e+01 3.603359e+01
      vertex -3.431856e+01 -4.074432e+01 3.603359e+01
      vertex -3.431856e+01 -3.474432e+01 3.603359e+01
    endloop
  endfacet
  facet normal 3.777843e-16 8.114018e-16 1.000000e+00
    outer loop
      vertex -3.831856e+01 4.474432e+01 3.603359e+01
      vertex -3.431856e+01 -3.474432e+01 3.603359e+01
      vertex -3.431856e+01 3.474432e+01 3.603359e+01
    endloop
  endfacet
  facet normal 3.777843e-16 8.114018e-16 1.000000e+00
    outer loop
      vertex -3.831856e+01 4.474432e+01 3.603359e+01
      vertex -3.431856e+01 3.474432e+01 3.603359e+01
      vertex -3.431856e+01 4.074432e+01 3.603359e+01
    endloop
  endfacet
  facet normal 3.777843e-16 8.114018e-16 1.000000e+00
    outer loop
      vertex -3.831856e+01 4.474432e+01 3.603359e+01
      vertex -3.431856e+01 4.074432e+01 3.603359e+01
      vertex -2.831856e+01 4.074432e+01 3.603359e+01
    endloop
  endfacet
  facet normal -1.000000e+00 -6.300516e-15 -1.809638e-17
    outer loop
      vertex -4.664032e+00 4.474432e+01 1.403360e+01
      vertex -4.664032e+00 3.674432e+01 1.823360e+01
      vertex -4.664032e+00 4.474432e+01 1.823360e+01
    endloop
  endfacet
  facet normal -1.000000e+00 -6.300516e-15 -1.809638e-17
    outer loop
      vertex -4.664032e+00 3.674432e+01 1.823360e+01
      vertex -4.664032e+00 4.474432e+01 1.403360e+01
      vertex -4.664032e+00 3.674432e+01 1.403360e+01
    endloop
  endfacet
  facet normal 1.000000e+00 6.300516e-15 1.809638e-17
    outer loop
      vertex -1.730454e+01 3.674432e+01 1.403360e+01
      vertex -1.730454e+01 4.474432e+01 3.603359e+01
      vertex -1.730454e+01 3.674432e+01 3.603359e+01
    endloop
  endfacet
  facet normal 1.000000e+00 6.300516e-15 1.809638e-17
    outer loop
      vertex -1.730454e+01 4.474432e+01 3.603359e+01
      vertex -1.730454e+01 3.674432e+01 1.403360e+01
      vertex -1.730454e+01 4.474432e+01 1.403360e+01
    endloop
  endfacet
  facet normal -1.809638e-17 4.612528e-16 1.000000e+00
    outer loop
      vertex -4.664032e+00 3.674432e+01 1.403360e+01
      vertex -1.730454e+01 4.474432e+01 1.403360e+01
      vertex -1.730454e+01 3.674432e+01 1.403360e+01
    endloop
  endfacet
  facet normal -1.809638e-17 4.612528e-16 1.000000e+00
    outer loop
      vertex -1.730454e+01 4.474432e+01 1.403360e+01
      vertex -4.664032e+00 3.674432e+01 1.403360e+01
      vertex -4.664032e+00 4.474432e+01 1.403360e+01
    endloop
  endfacet
  facet normal 1.000000e+00 6.300516e-15 1.809638e-17
    outer loop
      vertex 1.473409e+01 3.674432e+01 1.403360e+01
      vertex 1.473409e+01 4.474432e+01 1.823360e+01
      vertex 1.473409e+01 3.674432e+01 1.823360e+01
    endloop
  endfacet
  facet normal 1.000000e+00 6.300516e-15 1.809638e-17
    outer loop
      vertex 1.473409e+01 4.474432e+01 1.823360e+01
      vertex 1.473409e+01 3.674432e+01 1.403360e+01
      vertex 1.473409e+01 4.474432e+01 1.403360e+01
    endloop
  endfacet
  facet normal -1.000000e+00 -6.300516e-15 -1.809638e-17
    outer loop
      vertex 2.380656e+01 4.474432e+01 1.403360e+01
      vertex 2.380656e+01 4.074432e+01 3.603359e+01
      vertex 2.380656e+01 4.474432e+01 3.603359e+01
    endloop
  endfacet
  facet normal -1.000000e+00 -6.300516e-15 -1.809638e-17
    outer loop
      vertex 2.380656e+01 4.074432e+01 3.603359e+01
      vertex 2.380656e+01 4.474432e+01 1.403360e+01
      vertex 2.380656e+01 3.674432e+01 3.603359e+01
    endloop
  endfacet
  facet normal -1.000000e+00 -6.300516e-15 -1.809638e-17
    outer loop
      vertex 2.380656e+01 3.674432e+01 3.603359e+01
      vertex 2.380656e+01 4.474432e+01 1.403360e+01
      vertex 2.380656e+01 3.674432e+01 1.403360e+01
    endloop
  endfacet
  facet normal -1.809638e-17 4.612528e-16 1.000000e+00
    outer loop
      vertex 2.380656e+01 3.674432e+01 1.403360e+01
      vertex 1.473409e+01 4.474432e+01 1.403360e+01
      vertex 1.473409e+01 3.674432e+01 1.403360e+01
    endloop
  endfacet
  facet normal -1.809638e-17 4.612528e-16 1.000000e+00
    outer loop
      vertex 1.473409e+01 4.474432e+01 1.403360e+01
      vertex 2.380656e+01 3.674432e+01 1.403360e+01
      vertex 2.380656e+01 4.474432e+01 1.403360e+01
    endloop
  endfacet
  facet normal 1.000000e+00 6.300516e-15 1.809638e-17
    outer loop
      vertex 3.431856e+01 -4.074432e+01 3.603359e+01
      vertex 3.431856e+01 -3.474432e+01 4.203359e+01
      vertex 3.431856e+01 -4.074432e+01 4.203359e+01
    endloop
  endfacet
  facet normal 1.000000e+00 6.300516e-15 1.809638e-17
    outer loop
      vertex 3.431856e+01 -3.474432e+01 4.203359e+01
      vertex 3.431856e+01 -4.074432e+01 3.603359e+01
      vertex 3.431856e+01 -3.474432e+01 3.603359e+01
    endloop
  endfacet
  facet normal 6.300516e-15 -1.000000e+00 4.612528e-16
    outer loop
      vertex -3.831856e+01 -4.474432e+01 2.842171e-14
      vertex 3.831856e+01 -4.474432e+01 3.603359e+01
      vertex -3.831856e+01 -4.474432e+01 3.603359e+01
    endloop
  endfacet
  facet normal 6.300516e-15 -1.000000e+00 4.612528e-16
    outer loop
      vertex 3.831856e+01 -4.474432e+01 3.603359e+01
      vertex -3.831856e+01 -4.474432e+01 2.842171e-14
      vertex 3.831856e+01 -4.474432e+01 2.842171e-14
    endloop
  endfacet
  facet normal -1.809638e-17 4.612528e-16 1.000000e+00
    outer loop
      vertex 3.431856e+01 -4.074432e+01 4.203359e+01
      vertex 2.831856e+01 -3.474432e+01 4.203359e+01
      vertex 2.831856e+01 -4.074432e+01 4.203359e+01
    endloop
  endfacet
  facet normal -1.809638e-17 4.612528e-16 1.000000e+00
    outer loop
      vertex 2.831856e+01 -3.474432e+01 4.203359e+01
      vertex 3.431856e+01 -4.074432e+01 4.203359e+01
      vertex 3.431856e+01 -3.474432e+01 4.203359e+01
    endloop
  endfacet
  facet normal -1.000000e+00 -6.300516e-15 -1.809638e-17
    outer loop
      vertex -3.831856e+01 4.474432e+01 3.603359e+01
      vertex -3.831856e+01 -4.474432e+01 2.842171e-14
      vertex -3.831856e+01 -4.474432e+01 3.603359e+01
    endloop
  endfacet
  facet normal -1.000000e+00 -6.300516e-15 -1.809638e-17
    outer loop
      vertex -3.831856e+01 -4.474432e+01 2.842171e-14
      vertex -3.831856e+01 4.474432e+01 3.603359e+01
      vertex -3.831856e+01 4.474432e+01 0.000000e+00
    endloop
  endfacet
  facet normal -6.300516e-15 1.000000e+00 -4.612528e-16
    outer loop
      vertex 2.831856e+01 -3.474432e+01 4.203359e+01
      vertex 3.431856e+01 -3.474432e+01 6.033600e+00
      vertex 2.831856e+01 -3.474432e+01 6.033600e+00
    endloop
  endfacet
  facet normal -6.300516e-15 1.000000e+00 -4.612528e-16
    outer loop
      vertex 3.431856e+01 -3.474432e+01 6.033600e+00
      vertex 2.831856e+01 -3.474432e+01 4.203359e+01
      vertex 3.431856e+01 -3.474432e+01 4.203359e+01
    endloop
  endfacet
  facet normal -6.300516e-15 1.000000e+00 -4.612528e-16
    outer loop
      vertex 3.431856e+01 -3.474432e+01 6.033600e+00
      vertex 3.431856e+01 -3.474432e+01 4.203359e+01
      vertex 3.431856e+01 -3.474432e+01 3.603359e+01
    endloop
  endfacet
  facet normal -6.382184e-15 1.000000e+00 -4.788652e-16
    outer loop
      vertex 3.831856e+01 4.474432e+01 3.603359e+01
      vertex 2.380656e+01 4.474432e+01 1.403360e+01
      vertex 2.380656e+01 4.474432e+01 3.603359e+01
    endloop
  endfacet
  facet normal -6.382184e-15 1.000000e+00 -4.788652e-16
    outer loop
      vertex 2.380656e+01 4.474432e+01 1.403360e+01
      vertex 3.831856e+01 4.474432e+01 3.603359e+01
      vertex 3.831856e+01 4.474432e+01 0.000000e+00
    endloop
  endfacet
  facet normal -6.382184e-15 1.000000e+00 -4.788652e-16
    outer loop
      vertex -1.730454e+01 4.474432e+01 3.603359e+01
      vertex -3.831856e+01 4.474432e+01 0.000000e+00
      vertex -3.831856e+01 4.474432e+01 3.603359e+01
    endloop
  endfacet
  facet normal -6.382184e-15 1.000000e+00 -4.788652e-16
    outer loop
      vertex -3.831856e+01 4.474432e+01 0.000000e+00
      vertex -1.730454e+01 4.474432e+01 3.603359e+01
      vertex -1.730454e+01 4.474432e+01 1.403360e+01
    endloop
  endfacet
  facet normal -6.382184e-15 1.000000e+00 -4.788652e-16
    outer loop
      vertex -3.831856e+01 4.474432e+01 0.000000e+00
      vertex -1.730454e+01 4.474432e+01 1.403360e+01
      vertex 3.831856e+01 4.474432e+01 0.000000e+00
    endloop
  endfacet
  facet normal -6.382184e-15 1.000000e+00 -4.788652e-16
    outer loop
      vertex 3.831856e+01 4.474432e+01 0.000000e+00
      vertex -1.730454e+01 4.474432e+01 1.403360e+01
      vertex -4.664032e+00 4.474432e+01 1.403360e+01
    endloop
  endfacet
  facet normal -6.382184e-15 1.000000e+00 -4.788652e-16
    outer loop
      vertex 3.831856e+01 4.474432e+01 0.000000e+00
      vertex -4.664032e+00 4.474432e+01 1.403360e+01
      vertex -4.664032e+00 4.474432e+01 1.823360e+01
    endloop
  endfacet
  facet normal -6.382184e-15 1.000000e+00 -4.788652e-16
    outer loop
      vertex 3.831856e+01 4.474432e+01 0.000000e+00
      vertex -4.664032e+00 4.474432e+01 1.823360e+01
      vertex 1.473409e+01 4.474432e+01 1.403360e+01
    endloop
  endfacet
  facet normal -6.382184e-15 1.000000e+00 -4.788652e-16
    outer loop
      vertex 1.473409e+01 4.474432e+01 1.403360e+01
      vertex -4.664032e+00 4.474432e+01 1.823360e+01
      vertex 1.473409e+01 4.474432e+01 1.823360e+01
    endloop
  endfacet
  facet normal -6.382184e-15 1.000000e+00 -4.788652e-16
    outer loop
      vertex 3.831856e+01 4.474432e+01 0.000000e+00
      vertex 1.473409e+01 4.474432e+01 1.403360e+01
      vertex 2.380656e+01 4.474432e+01 1.403360e+01
    endloop
  endfacet
  facet normal -1.000000e+00 -6.300516e-15 -1.809638e-17
    outer loop
      vertex 2.831856e+01 -3.474432e+01 6.033600e+00
      vertex 2.831856e+01 -4.074432e+01 4.203359e+01
      vertex 2.831856e+01 -3.474432e+01 4.203359e+01
    endloop
  endfacet
  facet normal -1.000000e+00 -6.300516e-15 -1.809638e-17
    outer loop
      vertex 2.831856e+01 -4.074432e+01 4.203359e+01
      vertex 2.831856e+01 -3.474432e+01 6.033600e+00
      vertex 2.831856e+01 -4.074432e+01 3.603359e+01
    endloop
  endfacet
  facet normal -1.000000e+00 -6.300516e-15 -1.809638e-17
    outer loop
      vertex 2.831856e+01 -4.074432e+01 3.603359e+01
      vertex 2.831856e+01 -3.474432e+01 6.033600e+00
      vertex 2.831856e+01 -4.074432e+01 6.033600e+00
    endloop
  endfacet
  facet normal 1.496679e-15 1.395067e-15 1.000000e+00
    outer loop
      vertex 2.831856e+01 -4.074432e+01 6.033600e+00
      vertex -2.831856e+01 -3.474432e+01 6.033600e+00
      vertex -2.831856e+01 -4.074432e+01 6.033600e+00
    endloop
  endfacet
  facet normal 1.496679e-15 1.395067e-15 1.000000e+00
    outer loop
      vertex -2.831856e+01 -3.474432e+01 6.033600e+00
      vertex 2.831856e+01 -4.074432e+01 6.033600e+00
      vertex 2.831856e+01 -3.474432e+01 6.033600e+00
    endloop
  endfacet
  facet normal 1.496679e-15 1.395067e-15 1.000000e+00
    outer loop
      vertex 2.831856e+01 3.474432e+01 6.033600e+00
      vertex -2.831856e+01 3.674432e+01 6.033600e+00
      vertex -2.831856e+01 3.474432e+01 6.033600e+00
    endloop
  endfacet
  facet normal 1.496679e-15 1.395067e-15 1.000000e+00
    outer loop
      vertex -2.831856e+01 3.674432e+01 6.033600e+00
      vertex 2.831856e+01 3.474432e+01 6.033600e+00
      vertex 2.831856e+01 3.674432e+01 6.033600e+00
    endloop
  endfacet
  facet normal 1.496679e-15 1.395067e-15 1.000000e+00
    outer loop
      vertex 3.431856e+01 3.474432e+01 6.033600e+00
      vertex 1.000000e+01 -1.000000e+01 6.033600e+00
      vertex 3.431856e+01 -3.474432e+01 6.033600e+00
    endloop
  endfacet
  facet normal 1.496679e-15 1.395067e-15 1.000000e+00
    outer loop
      vertex 1.000000e+01 -1.000000e+01 6.033600e+00
      vertex 3.431856e+01 3.474432e+01 6.033600e+00
      vertex 1.000000e+01 -2.000000e+00 6.033600e+00
    endloop
  endfacet
  facet normal 1.496679e-15 1.395067e-15 1.000000e+00
    outer loop
      vertex 1.000000e+01 -2.000000e+00 6.033600e+00
      vertex 3.431856e+01 3.474432e+01 6.033600e+00
      vertex 1.000000e+01 2.000000e+00 6.033600e+00
    endloop
  endfacet
  facet normal 1.496679e-15 1.395067e-15 1.000000e+00
    outer loop
      vertex 1.000000e+01 -2.000000e+00 6.033600e+00
      vertex 1.000000e+01 2.000000e+00 6.033600e+00
      vertex -1.000000e+01 -2.000000e+00 6.033600e+00
    endloop
  endfacet
  facet normal 1.496679e-15 1.395067e-15 1.000000e+00
    outer loop
      vertex 1.000000e+01 2.000000e+00 6.033600e+00
      vertex 3.431856e+01 3.474432e+01 6.033600e+00
      vertex 1.000000e+01 1.000000e+01 6.033600e+00
    endloop
  endfacet
  facet normal 1.496679e-15 1.395067e-15 1.000000e+00
    outer loop
      vertex 1.000000e+01 1.000000e+01 6.033600e+00
      vertex 3.431856e+01 3.474432e+01 6.033600e+00
      vertex -1.000000e+01 1.000000e+01 6.033600e+00
    endloop
  endfacet
  facet normal 1.496679e-15 1.395067e-15 1.000000e+00
    outer loop
      vertex -1.000000e+01 1.000000e+01 6.033600e+00
      vertex 3.431856e+01 3.474432e+01 6.033600e+00
      vertex 2.831856e+01 3.474432e+01 6.033600e+00
    endloop
  endfacet
  facet normal 1.496679e-15 1.395067e-15 1.000000e+00
    outer loop
      vertex -1.000000e+01 1.000000e+01 6.033600e+00
      vertex 2.831856e+01 3.474432e+01 6.033600e+00
      vertex -2.831856e+01 3.474432e+01 6.033600e+00
    endloop
  endfacet
  facet normal 1.496679e-15 1.395067e-15 1.000000e+00
    outer loop
      vertex -1.000000e+01 1.000000e+01 6.033600e+00
      vertex -2.831856e+01 3.474432e+01 6.033600e+00
      vertex -3.431856e+01 3.474432e+01 6.033600e+00
    endloop
  endfacet
  facet normal 1.496679e-15 1.395067e-15 1.000000e+00
    outer loop
      vertex -2.831856e+01 -3.474432e+01 6.033600e+00
      vertex -3.431856e+01 3.474432e+01 6.033600e+00
      vertex -3.431856e+01 -3.474432e+01 6.033600e+00
    endloop
  endfacet
  facet normal 1.496679e-15 1.395067e-15 1.000000e+00
    outer loop
      vertex -3.431856e+01 3.474432e+01 6.033600e+00
      vertex -2.831856e+01 -3.474432e+01 6.033600e+00
      vertex -1.000000e+01 -1.000000e+01 6.033600e+00
    endloop
  endfacet
  facet normal 1.496679e-15 1.395067e-15 1.000000e+00
    outer loop
      vertex -1.000000e+01 -1.000000e+01 6.033600e+00
      vertex -2.831856e+01 -3.474432e+01 6.033600e+00
      vertex 2.831856e+01 -3.474432e+01 6.033600e+00
    endloop
  endfacet
  facet normal 1.496679e-15 1.395067e-15 1.000000e+00
    outer loop
      vertex -1.000000e+01 -1.000000e+01 6.033600e+00
      vertex 2.831856e+01 -3.474432e+01 6.033600e+00
      vertex 3.431856e+01 -3.474432e+01 6.033600e+00
    endloop
  endfacet
  facet normal 1.496679e-15 1.395067e-15 1.000000e+00
    outer loop
      vertex -1.000000e+01 -1.000000e+01 6.033600e+00
      vertex 3.431856e+01 -3.474432e+01 6.033600e+00
      vertex 1.000000e+01 -1.000000e+01 6.033600e+00
    endloop
  endfacet
  facet normal 1.496679e-15 1.395067e-15 1.000000e+00
    outer loop
      vertex -3.431856e+01 3.474432e+01 6.033600e+00
      vertex -1.000000e+01 -1.000000e+01 6.033600e+00
      vertex -1.000000e+01 -2.000000e+00 6.033600e+00
    endloop
  endfacet
  facet normal 1.496679e-15 1.395067e-15 1.000000e+00
    outer loop
      vertex -3.431856e+01 3.474432e+01 6.033600e+00
      vertex -1.000000e+01 -2.000000e+00 6.033600e+00
      vertex -1.000000e+01 2.000000e+00 6.033600e+00
    endloop
  endfacet
  facet normal 1.496679e-15 1.395067e-15 1.000000e+00
    outer loop
      vertex -1.000000e+01 2.000000e+00 6.033600e+00
      vertex -1.000000e+01 -2.000000e+00 6.033600e+00
      vertex 1.000000e+01 2.000000e+00 6.033600e+00
    endloop
  endfacet
  facet normal 1.496679e-15 1.395067e-15 1.000000e+00
    outer loop
      vertex -3.431856e+01 3.474432e+01 6.033600e+00
      vertex -1.000000e+01 2.000000e+00 6.033600e+00
      vertex -1.000000e+01 1.000000e+01 6.033600e+00
    endloop
  endfacet
  facet normal 6.300516e-15 -1.000000e+00 4.612528e-16
    outer loop
      vertex 3.431856e+01 3.474432e+01 6.033600e+00
      vertex 2.831856e+01 3.474432e+01 4.203359e+01
      vertex 2.831856e+01 3.474432e+01 6.033600e+00
    endloop
  endfacet
  facet normal 6.300516e-15 -1.000000e+00 4.612528e-16
    outer loop
      vertex 2.831856e+01 3.474432e+01 4.203359e+01
      vertex 3.431856e+01 3.474432e+01 6.033600e+00
      vertex 3.431856e+01 3.474432e+01 4.203359e+01
    endloop
  endfacet
  facet normal 6.300516e-15 -1.000000e+00 4.612528e-16
    outer loop
      vertex 3.431856e+01 3.474432e+01 4.203359e+01
      vertex 3.431856e+01 3.474432e+01 6.033600e+00
      vertex 3.431856e+01 3.474432e+01 3.603359e+01
    endloop
  endfacet
  facet normal -1.000000e+00 -6.300516e-15 -1.809638e-17
    outer loop
      vertex 2.831856e+01 4.074432e+01 3.603359e+01
      vertex 2.831856e+01 3.474432e+01 4.203359e+01
      vertex 2.831856e+01 4.074432e+01 4.203359e+01
    endloop
  endfacet
  facet normal -1.000000e+00 -6.300516e-15 -1.809638e-17
    outer loop
      vertex 2.831856e+01 3.474432e+01 4.203359e+01
      vertex 2.831856e+01 4.074432e+01 3.603359e+01
      vertex 2.831856e+01 3.674432e+01 3.603359e+01
    endloop
  endfacet
  facet normal -1.000000e+00 -6.300516e-15 -1.809638e-17
    outer loop
      vertex 2.831856e+01 3.474432e+01 4.203359e+01
      vertex 2.831856e+01 3.674432e+01 3.603359e+01
      vertex 2.831856e+01 3.474432e+01 6.033600e+00
    endloop
  endfacet
  facet normal -1.000000e+00 -6.300516e-15 -1.809638e-17
    outer loop
      vertex 2.831856e+01 3.474432e+01 6.033600e+00
      vertex 2.831856e+01 3.674432e+01 3.603359e+01
      vertex 2.831856e+01 3.674432e+01 6.033600e+00
    endloop
  endfacet
  facet normal 1.000000e+00 6.300516e-15 1.809638e-17
    outer loop
      vertex 3.431856e+01 3.474432e+01 3.603359e+01
      vertex 3.431856e+01 4.074432e+01 4.203359e+01
      vertex 3.431856e+01 3.474432e+01 4.203359e+01
    endloop
  endfacet
  facet normal 1.000000e+00 6.300516e-15 1.809638e-17
    outer loop
      vertex 3.431856e+01 4.074432e+01 4.203359e+01
      vertex 3.431856e+01 3.474432e+01 3.603359e+01
      vertex 3.431856e+01 4.074432e+01 3.603359e+01
    endloop
  endfacet
  facet normal -1.809638e-17 4.612528e-16 1.000000e+00
    outer loop
      vertex 3.431856e+01 3.474432e+01 4.203359e+01
      vertex 2.831856e+01 4.074432e+01 4.203359e+01
      vertex 2.831856e+01 3.474432e+01 4.203359e+01
    endloop
  endfacet
  facet normal -1.809638e-17 4.612528e-16 1.000000e+00
    outer loop
      vertex 2.831856e+01 4.074432e+01 4.203359e+01
      vertex 3.431856e+01 3.474432e+01 4.203359e+01
      vertex 3.431856e+01 4.074432e+01 4.203359e+01
    endloop
  endfacet
  facet normal 1.000000e+00 6.300516e-15 1.809638e-17
    outer loop
      vertex -2.831856e+01 3.474432e+01 4.203359e+01
      vertex -2.831856e+01 3.674432e+01 3.603359e+01
      vertex -2.831856e+01 4.074432e+01 4.203359e+01
    endloop
  endfacet
  facet normal 1.000000e+00 6.300516e-15 1.809638e-17
    outer loop
      vertex -2.831856e+01 3.674432e+01 3.603359e+01
      vertex -2.831856e+01 3.474432e+01 4.203359e+01
      vertex -2.831856e+01 3.474432e+01 6.033600e+00
    endloop
  endfacet
  facet normal 1.000000e+00 6.300516e-15 1.809638e-17
    outer loop
      vertex -2.831856e+01 3.674432e+01 3.603359e+01
      vertex -2.831856e+01 3.474432e+01 6.033600e+00
      vertex -2.831856e+01 3.674432e+01 6.033600e+00
    endloop
  endfacet
  facet normal 1.000000e+00 6.300516e-15 1.809638e-17
    outer loop
      vertex -2.831856e+01 4.074432e+01 3.603359e+01
      vertex -2.831856e+01 4.074432e+01 4.203359e+01
      vertex -2.831856e+01 3.674432e+01 3.603359e+01
    endloop
  endfacet
  facet normal 6.300516e-15 -1.000000e+00 4.612528e-16
    outer loop
      vertex -2.831856e+01 3.474432e+01 6.033600e+00
      vertex -3.431856e+01 3.474432e+01 3.603359e+01
      vertex -3.431856e+01 3.474432e+01 6.033600e+00
    endloop
  endfacet
  facet normal 6.300516e-15 -1.000000e+00 4.612528e-16
    outer loop
      vertex -3.431856e+01 3.474432e+01 3.603359e+01
      vertex -2.831856e+01 3.474432e+01 6.033600e+00
      vertex -3.431856e+01 3.474432e+01 4.203359e+01
    endloop
  endfacet
  facet normal 6.300516e-15 -1.000000e+00 4.612528e-16
    outer loop
      vertex -3.431856e+01 3.474432e+01 4.203359e+01
      vertex -2.831856e+01 3.474432e+01 6.033600e+00
      vertex -2.831856e+01 3.474432e+01 4.203359e+01
    endloop
  endfacet
  facet normal -1.000000e+00 -6.300516e-15 -1.809638e-17
    outer loop
      vertex -3.431856e+01 4.074432e+01 3.603359e+01
      vertex -3.431856e+01 3.474432e+01 4.203359e+01
      vertex -3.431856e+01 4.074432e+01 4.203359e+01
    endloop
  endfacet
  facet normal -1.000000e+00 -6.300516e-15 -1.809638e-17
    outer loop
      vertex -3.431856e+01 3.474432e+01 4.203359e+01
      vertex -3.431856e+01 4.074432e+01 3.603359e+01
      vertex -3.431856e+01 3.474432e+01 3.603359e+01
    endloop
  endfacet
  facet normal 1.126177e-14 -1.081861e-14 1.000000e+00
    outer loop
      vertex -2.831856e+01 3.474432e+01 4.203359e+01
      vertex -3.431856e+01 4.074432e+01 4.203359e+01
      vertex -3.431856e+01 3.474432e+01 4.203359e+01
    endloop
  endfacet
  facet normal 1.126177e-14 -1.081861e-14 1.000000e+00
    outer loop
      vertex -3.431856e+01 4.074432e+01 4.203359e+01
      vertex -2.831856e+01 3.474432e+01 4.203359e+01
      vertex -2.831856e+01 4.074432e+01 4.203359e+01
    endloop
  endfacet
  facet normal 6.273325e-15 -1.000000e+00 4.681115e-16
    outer loop
      vertex -2.831856e+01 3.674432e+01 6.033600e+00
      vertex -1.730454e+01 3.674432e+01 1.403360e+01
      vertex -2.831856e+01 3.674432e+01 3.603359e+01
    endloop
  endfacet
  facet normal 6.273325e-15 -1.000000e+00 4.681115e-16
    outer loop
      vertex -1.730454e+01 3.674432e+01 1.403360e+01
      vertex -2.831856e+01 3.674432e+01 6.033600e+00
      vertex 2.831856e+01 3.674432e+01 6.033600e+00
    endloop
  endfacet
  facet normal 6.273325e-15 -1.000000e+00 4.681115e-16
    outer loop
      vertex -1.730454e+01 3.674432e+01 1.403360e+01
      vertex 2.831856e+01 3.674432e+01 6.033600e+00
      vertex -4.664032e+00 3.674432e+01 1.403360e+01
    endloop
  endfacet
  facet normal 6.273325e-15 -1.000000e+00 4.681115e-16
    outer loop
      vertex -4.664032e+00 3.674432e+01 1.403360e+01
      vertex 2.831856e+01 3.674432e+01 6.033600e+00
      vertex -4.664032e+00 3.674432e+01 1.823360e+01
    endloop
  endfacet
  facet normal 6.273325e-15 -1.000000e+00 4.681115e-16
    outer loop
      vertex -4.664032e+00 3.674432e+01 1.823360e+01
      vertex 2.831856e+01 3.674432e+01 6.033600e+00
      vertex 1.473409e+01 3.674432e+01 1.403360e+01
    endloop
  endfacet
  facet normal 6.273325e-15 -1.000000e+00 4.681115e-16
    outer loop
      vertex -4.664032e+00 3.674432e+01 1.823360e+01
      vertex 1.473409e+01 3.674432e+01 1.403360e+01
      vertex 1.473409e+01 3.674432e+01 1.823360e+01
    endloop
  endfacet
  facet normal 6.273325e-15 -1.000000e+00 4.681115e-16
    outer loop
      vertex 1.473409e+01 3.674432e+01 1.403360e+01
      vertex 2.831856e+01 3.674432e+01 6.033600e+00
      vertex 2.380656e+01 3.674432e+01 1.403360e+01
    endloop
  endfacet
  facet normal 6.273325e-15 -1.000000e+00 4.681115e-16
    outer loop
      vertex 2.380656e+01 3.674432e+01 1.403360e+01
      vertex 2.831856e+01 3.674432e+01 3.603359e+01
      vertex 2.380656e+01 3.674432e+01 3.603359e+01
    endloop
  endfacet
  facet normal 6.273325e-15 -1.000000e+00 4.681115e-16
    outer loop
      vertex 2.831856e+01 3.674432e+01 3.603359e+01
      vertex 2.380656e+01 3.674432e+01 1.403360e+01
      vertex 2.831856e+01 3.674432e+01 6.033600e+00
    endloop
  endfacet
  facet normal 6.273325e-15 -1.000000e+00 4.681115e-16
    outer loop
      vertex -1.730454e+01 3.674432e+01 3.603359e+01
      vertex -2.831856e+01 3.674432e+01 3.603359e+01
      vertex -1.730454e+01 3.674432e+01 1.403360e+01
    endloop
  endfacet
  facet normal 1.000000e+00 -6.906926e-31 -3.759955e-15
    outer loop
      vertex -1.000000e+01 -1.000000e+01 4.533600e+00
      vertex -1.000000e+01 -2.000000e+00 6.033600e+00
      vertex -1.000000e+01 -1.000000e+01 6.033600e+00
    endloop
  endfacet
  facet normal 1.000000e+00 -6.906926e-31 -3.759955e-15
    outer loop
      vertex -1.000000e+01 -2.000000e+00 6.033600e+00
      vertex -1.000000e+01 -1.000000e+01 4.533600e+00
      vertex -1.000000e+01 -2.000000e+00 4.533600e+00
    endloop
  endfacet
  facet normal 1.000000e+00 0.000000e+00 0.000000e+00
    outer loop
      vertex -1.000000e+01 2.000000e+00 4.533600e+00
      vertex -1.000000e+01 1.000000e+01 6.033600e+00
      vertex -1.000000e+01 2.000000e+00 6.033600e+00
    endloop
  endfacet
  facet normal 1.000000e+00 0.000000e+00 0.000000e+00
    outer loop
      vertex -1.000000e+01 1.000000e+01 6.033600e+00
      vertex -1.000000e+01 2.000000e+00 4.533600e+00
      vertex -1.000000e+01 1.000000e+01 4.533600e+00
    endloop
  endfacet
  facet normal -1.000000e+00 0.000000e+00 -0.000000e+00
    outer loop
      vertex 1.000000e+01 1.000000e+01 4.533600e+00
      vertex 1.000000e+01 2.000000e+00 6.033600e+00
      vertex 1.000000e+01 1.000000e+01 6.033600e+00
    endloop
  endfacet
  facet normal -1.000000e+00 0.000000e+00 -0.000000e+00
    outer loop
      vertex 1.000000e+01 2.000000e+00 6.033600e+00
      vertex 1.000000e+01 1.000000e+01 4.533600e+00
      vertex 1.000000e+01 2.000000e+00 4.533600e+00
    endloop
  endfacet
  facet normal -1.000000e+00 6.906926e-31 3.759955e-15
    outer loop
      vertex 1.000000e+01 -2.000000e+00 4.533600e+00
      vertex 1.000000e+01 -1.000000e+01 6.033600e+00
      vertex 1.000000e+01 -2.000000e+00 6.033600e+00
    endloop
  endfacet
  facet normal -1.000000e+00 6.906926e-31 3.759955e-15
    outer loop
      vertex 1.000000e+01 -1.000000e+01 6.033600e+00
      vertex 1.000000e+01 -2.000000e+00 4.533600e+00
      vertex 1.000000e+01 -1.000000e+01 4.533600e+00
    endloop
  endfacet
  facet normal 1.227790e-16 1.134219e-14 -1.000000e+00
    outer loop
      vertex -1.598144e+01 -1.400000e+01 4.533600e+00
      vertex -1.000000e+01 -1.000000e+01 4.533600e+00
      vertex 3.831856e+01 -1.400000e+01 4.533600e+00
    endloop
  endfacet
  facet normal 1.227790e-16 1.134219e-14 -1.000000e+00
    outer loop
      vertex -1.000000e+01 -1.000000e+01 4.533600e+00
      vertex -1.598144e+01 -1.400000e+01 4.533600e+00
      vertex -1.598144e+01 -2.000000e+00 4.533600e+00
    endloop
  endfacet
  facet normal 1.227790e-16 1.134219e-14 -1.000000e+00
    outer loop
      vertex -1.000000e+01 -1.000000e+01 4.533600e+00
      vertex -1.598144e+01 -2.000000e+00 4.533600e+00
      vertex -1.000000e+01 -2.000000e+00 4.533600e+00
    endloop
  endfacet
  facet normal 1.227790e-16 1.134219e-14 -1.000000e+00
    outer loop
      vertex 1.000000e+01 1.000000e+01 4.533600e+00
      vertex 1.831856e+01 2.000000e+00 4.533600e+00
      vertex 1.000000e+01 2.000000e+00 4.533600e+00
    endloop
  endfacet
  facet normal 1.227790e-16 1.134219e-14 -1.000000e+00
    outer loop
      vertex -1.598144e+01 1.400000e+01 4.533600e+00
      vertex -1.000000e+01 2.000000e+00 4.533600e+00
      vertex -1.598144e+01 2.000000e+00 4.533600e+00
    endloop
  endfacet
  facet normal 1.227790e-16 1.134219e-14 -1.000000e+00
    outer loop
      vertex -1.000000e+01 2.000000e+00 4.533600e+00
      vertex -1.598144e+01 1.400000e+01 4.533600e+00
      vertex -1.000000e+01 1.000000e+01 4.533600e+00
    endloop
  endfacet
  facet normal 1.227790e-16 1.134219e-14 -1.000000e+00
    outer loop
      vertex -1.000000e+01 1.000000e+01 4.533600e+00
      vertex -1.598144e+01 1.400000e+01 4.533600e+00
      vertex 1.000000e+01 1.000000e+01 4.533600e+00
    endloop
  endfacet
  facet normal 1.227790e-16 1.134219e-14 -1.000000e+00
    outer loop
      vertex 3.831856e+01 -1.400000e+01 4.533600e+00
      vertex 1.000000e+01 -1.000000e+01 4.533600e+00
      vertex 3.831856e+01 1.400000e+01 4.533600e+00
    endloop
  endfacet
  facet normal 1.227790e-16 1.134219e-14 -1.000000e+00
    outer loop
      vertex 1.000000e+01 -1.000000e+01 4.533600e+00
      vertex 3.831856e+01 -1.400000e+01 4.533600e+00
      vertex -1.000000e+01 -1.000000e+01 4.533600e+00
    endloop
  endfacet
  facet normal 1.227790e-16 1.134219e-14 -1.000000e+00
    outer loop
      vertex 3.831856e+01 1.400000e+01 4.533600e+00
      vertex 1.000000e+01 -1.000000e+01 4.533600e+00
      vertex 1.831856e+01 -2.000000e+00 4.533600e+00
    endloop
  endfacet
  facet normal 1.227790e-16 1.134219e-14 -1.000000e+00
    outer loop
      vertex 1.831856e+01 -2.000000e+00 4.533600e+00
      vertex 1.000000e+01 -1.000000e+01 4.533600e+00
      vertex 1.000000e+01 -2.000000e+00 4.533600e+00
    endloop
  endfacet
  facet normal 1.227790e-16 1.134219e-14 -1.000000e+00
    outer loop
      vertex 3.831856e+01 1.400000e+01 4.533600e+00
      vertex 1.831856e+01 -2.000000e+00 4.533600e+00
      vertex 1.831856e+01 2.000000e+00 4.533600e+00
    endloop
  endfacet
  facet normal 1.227790e-16 1.134219e-14 -1.000000e+00
    outer loop
      vertex 3.831856e+01 1.400000e+01 4.533600e+00
      vertex 1.831856e+01 2.000000e+00 4.533600e+00
      vertex 1.000000e+01 1.000000e+01 4.533600e+00
    endloop
  endfacet
  facet normal 1.227790e-16 1.134219e-14 -1.000000e+00
    outer loop
      vertex 3.831856e+01 1.400000e+01 4.533600e+00
      vertex 1.000000e+01 1.000000e+01 4.533600e+00
      vertex -1.598144e+01 1.400000e+01 4.533600e+00
    endloop
  endfacet
  facet normal 0.000000e+00 1.000000e+00 -1.836970e-16
    outer loop
      vertex -1.000000e+01 -1.000000e+01 6.033600e+00
      vertex 1.000000e+01 -1.000000e+01 4.533600e+00
      vertex -1.000000e+01 -1.000000e+01 4.533600e+00
    endloop
  endfacet
  facet normal 0.000000e+00 1.000000e+00 -1.836970e-16
    outer loop
      vertex 1.000000e+01 -1.000000e+01 4.533600e+00
      vertex -1.000000e+01 -1.000000e+01 6.033600e+00
      vertex 1.000000e+01 -1.000000e+01 6.033600e+00
    endloop
  endfacet
  facet normal 2.819966e-16 -1.000000e+00 1.898347e-14
    outer loop
      vertex 1.000000e+01 1.000000e+01 4.533600e+00
      vertex -1.000000e+01 1.000000e+01 6.033600e+00
      vertex -1.000000e+01 1.000000e+01 4.533600e+00
    endloop
  endfacet
  facet normal 2.819966e-16 -1.000000e+00 1.898347e-14
    outer loop
      vertex -1.000000e+01 1.000000e+01 6.033600e+00
      vertex 1.000000e+01 1.000000e+01 4.533600e+00
      vertex 1.000000e+01 1.000000e+01 6.033600e+00
    endloop
  endfacet
  facet normal 3.000787e-16 -1.147804e-14 1.000000e+00
    outer loop
      vertex 3.831856e+01 -1.400000e+01 1.500000e+00
      vertex 1.000000e+01 -1.000000e+01 1.500000e+00
      vertex -1.598144e+01 -1.400000e+01 1.500000e+00
    endloop
  endfacet
  facet normal 3.000787e-16 -1.147804e-14 1.000000e+00
    outer loop
      vertex 1.000000e+01 -1.000000e+01 1.500000e+00
      vertex 3.831856e+01 -1.400000e+01 1.500000e+00
      vertex 3.831856e+01 1.400000e+01 1.500000e+00
    endloop
  endfacet
  facet normal 3.000787e-16 -1.147804e-14 1.000000e+00
    outer loop
      vertex 1.000000e+01 -1.000000e+01 1.500000e+00
      vertex 3.831856e+01 1.400000e+01 1.500000e+00
      vertex 1.831856e+01 -2.000000e+00 1.500000e+00
    endloop
  endfacet
  facet normal 3.000787e-16 -1.147804e-14 1.000000e+00
    outer loop
      vertex 1.831856e+01 -2.000000e+00 1.500000e+00
      vertex 3.831856e+01 1.400000e+01 1.500000e+00
      vertex 1.831856e+01 2.000000e+00 1.500000e+00
    endloop
  endfacet
  facet normal 3.000787e-16 -1.147804e-14 1.000000e+00
    outer loop
      vertex 1.831856e+01 2.000000e+00 1.500000e+00
      vertex 3.831856e+01 1.400000e+01 1.500000e+00
      vertex 1.000000e+01 1.000000e+01 1.500000e+00
    endloop
  endfacet
  facet normal 3.000787e-16 -1.147804e-14 1.000000e+00
    outer loop
      vertex 1.000000e+01 1.000000e+01 1.500000e+00
      vertex 3.831856e+01 1.400000e+01 1.500000e+00
      vertex -1.598144e+01 1.400000e+01 1.500000e+00
    endloop
  endfacet
  facet normal 3.000787e-16 -1.147804e-14 1.000000e+00
    outer loop
      vertex -1.000000e+01 2.000000e+00 1.500000e+00
      vertex -1.598144e+01 1.400000e+01 1.500000e+00
      vertex -1.598144e+01 2.000000e+00 1.500000e+00
    endloop
  endfacet
  facet normal 3.000787e-16 -1.147804e-14 1.000000e+00
    outer loop
      vertex -1.598144e+01 1.400000e+01 1.500000e+00
      vertex -1.000000e+01 2.000000e+00 1.500000e+00
      vertex -1.000000e+01 1.000000e+01 1.500000e+00
    endloop
  endfacet
  facet normal 3.000787e-16 -1.147804e-14 1.000000e+00
    outer loop
      vertex -1.598144e+01 1.400000e+01 1.500000e+00
      vertex -1.000000e+01 1.000000e+01 1.500000e+00
      vertex 1.000000e+01 1.000000e+01 1.500000e+00
    endloop
  endfacet
  facet normal 3.000787e-16 -1.147804e-14 1.000000e+00
    outer loop
      vertex 1.000000e+01 1.000000e+01 1.500000e+00
      vertex 1.000000e+01 2.000000e+00 1.500000e+00
      vertex 1.831856e+01 2.000000e+00 1.500000e+00
    endloop
  endfacet
  facet normal 3.000787e-16 -1.147804e-14 1.000000e+00
    outer loop
      vertex 1.000000e+01 -2.000000e+00 1.500000e+00
      vertex 1.000000e+01 -1.000000e+01 1.500000e+00
      vertex 1.831856e+01 -2.000000e+00 1.500000e+00
    endloop
  endfacet
  facet normal 3.000787e-16 -1.147804e-14 1.000000e+00
    outer loop
      vertex -1.598144e+01 -1.400000e+01 1.500000e+00
      vertex -1.000000e+01 -1.000000e+01 1.500000e+00
      vertex -1.598144e+01 -2.000000e+00 1.500000e+00
    endloop
  endfacet
  facet normal 3.000787e-16 -1.147804e-14 1.000000e+00
    outer loop
      vertex -1.000000e+01 -1.000000e+01 1.500000e+00
      vertex -1.598144e+01 -1.400000e+01 1.500000e+00
      vertex 1.000000e+01 -1.000000e+01 1.500000e+00
    endloop
  endfacet
  facet normal 3.000787e-16 -1.147804e-14 1.000000e+00
    outer loop
      vertex -1.598144e+01 -2.000000e+00 1.500000e+00
      vertex -1.000000e+01 -1.000000e+01 1.500000e+00
      vertex -1.000000e+01 -2.000000e+00 1.500000e+00
    endloop
  endfacet
  facet normal 1.000000e+00 0.000000e+00 0.000000e+00
    outer loop
      vertex -1.000000e+01 2.000000e+00 2.842171e-14
      vertex -1.000000e+01 1.000000e+01 1.500000e+00
      vertex -1.000000e+01 2.000000e+00 1.500000e+00
    endloop
  endfacet
  facet normal 1.000000e+00 0.000000e+00 0.000000e+00
    outer loop
      vertex -1.000000e+01 1.000000e+01 1.500000e+00
      vertex -1.000000e+01 2.000000e+00 2.842171e-14
      vertex -1.000000e+01 1.000000e+01 2.842171e-14
    endloop
  endfacet
  facet normal 2.819966e-16 -1.000000e+00 -1.861608e-14
    outer loop
      vertex 1.000000e+01 1.000000e+01 2.842171e-14
      vertex -1.000000e+01 1.000000e+01 1.500000e+00
      vertex -1.000000e+01 1.000000e+01 2.842171e-14
    endloop
  endfacet
  facet normal 2.819966e-16 -1.000000e+00 -1.861608e-14
    outer loop
      vertex -1.000000e+01 1.000000e+01 1.500000e+00
      vertex 1.000000e+01 1.000000e+01 2.842171e-14
      vertex 1.000000e+01 1.000000e+01 1.500000e+00
    endloop
  endfacet
  facet normal 6.528676e-16 -1.000000e+00 1.836970e-16
    outer loop
      vertex 3.831856e+01 1.400000e+01 1.500000e+00
      vertex -1.598144e+01 1.400000e+01 4.533600e+00
      vertex -1.598144e+01 1.400000e+01 1.500000e+00
    endloop
  endfacet
  facet normal 6.528676e-16 -1.000000e+00 1.836970e-16
    outer loop
      vertex -1.598144e+01 1.400000e+01 4.533600e+00
      vertex 3.831856e+01 1.400000e+01 1.500000e+00
      vertex 3.831856e+01 1.400000e+01 4.533600e+00
    endloop
  endfacet
  facet normal -1.000000e+00 -6.906926e-31 -3.759955e-15
    outer loop
      vertex 1.000000e+01 -2.000000e+00 2.842171e-14
      vertex 1.000000e+01 -1.000000e+01 1.500000e+00
      vertex 1.000000e+01 -2.000000e+00 1.500000e+00
    endloop
  endfacet
  facet normal -1.000000e+00 -6.906926e-31 -3.759955e-15
    outer loop
      vertex 1.000000e+01 -1.000000e+01 1.500000e+00
      vertex 1.000000e+01 -2.000000e+00 2.842171e-14
      vertex 1.000000e+01 -1.000000e+01 2.842171e-14
    endloop
  endfacet
  facet normal 1.000000e+00 6.906926e-31 3.759955e-15
    outer loop
      vertex -1.000000e+01 -1.000000e+01 2.842171e-14
      vertex -1.000000e+01 -2.000000e+00 1.500000e+00
      vertex -1.000000e+01 -1.000000e+01 1.500000e+00
    endloop
  endfacet
  facet normal 1.000000e+00 6.906926e-31 3.759955e-15
    outer loop
      vertex -1.000000e+01 -2.000000e+00 1.500000e+00
      vertex -1.000000e+01 -1.000000e+01 2.842171e-14
      vertex -1.000000e+01 -2.000000e+00 2.842171e-14
    endloop
  endfacet
  facet normal 1.000000e+00 6.830425e-31 3.718310e-15
    outer loop
      vertex -1.598144e+01 -1.400000e+01 1.500000e+00
      vertex -1.598144e+01 -2.000000e+00 4.533600e+00
      vertex -1.598144e+01 -1.400000e+01 4.533600e+00
    endloop
  endfacet
  facet normal 1.000000e+00 6.830425e-31 3.718310e-15
    outer loop
      vertex -1.598144e+01 -2.000000e+00 4.533600e+00
      vertex -1.598144e+01 -1.400000e+01 1.500000e+00
      vertex -1.598144e+01 -2.000000e+00 1.500000e+00
    endloop
  endfacet
  facet normal 0.000000e+00 1.000000e+00 -1.836970e-16
    outer loop
      vertex 3.831856e+01 -1.400000e+01 4.533600e+00
      vertex -1.598144e+01 -1.400000e+01 1.500000e+00
      vertex -1.598144e+01 -1.400000e+01 4.533600e+00
    endloop
  endfacet
  facet normal 0.000000e+00 1.000000e+00 -1.836970e-16
    outer loop
      vertex -1.598144e+01 -1.400000e+01 1.500000e+00
      vertex 3.831856e+01 -1.400000e+01 4.533600e+00
      vertex 3.831856e+01 -1.400000e+01 1.500000e+00
    endloop
  endfacet
  facet normal 1.000000e+00 6.042785e-16 -2.478873e-15
    outer loop
      vertex -1.598144e+01 2.000000e+00 1.500000e+00
      vertex -1.598144e+01 1.400000e+01 4.533600e+00
      vertex -1.598144e+01 2.000000e+00 4.533600e+00
    endloop
  endfacet
  facet normal 1.000000e+00 6.042785e-16 -2.478873e-15
    outer loop
      vertex -1.598144e+01 1.400000e+01 4.533600e+00
      vertex -1.598144e+01 2.000000e+00 1.500000e+00
      vertex -1.598144e+01 1.400000e+01 1.500000e+00
    endloop
  endfacet
  facet normal -1.000000e+00 0.000000e+00 -0.000000e+00
    outer loop
      vertex 1.000000e+01 1.000000e+01 2.842171e-14
      vertex 1.000000e+01 2.000000e+00 1.500000e+00
      vertex 1.000000e+01 1.000000e+01 1.500000e+00
    endloop
  endfacet
  facet normal -1.000000e+00 0.000000e+00 -0.000000e+00
    outer loop
      vertex 1.000000e+01 2.000000e+00 1.500000e+00
      vertex 1.000000e+01 1.000000e+01 2.842171e-14
      vertex 1.000000e+01 2.000000e+00 2.842171e-14
    endloop
  endfacet
  facet normal 0.000000e+00 1.000000e+00 -1.836970e-16
    outer loop
      vertex 1.000000e+01 -1.000000e+01 1.500000e+00
      vertex -1.000000e+01 -1.000000e+01 2.842171e-14
      vertex -1.000000e+01 -1.000000e+01 1.500000e+00
    endloop
  endfacet
  facet normal 0.000000e+00 1.000000e+00 -1.836970e-16
    outer loop
      vertex -1.000000e+01 -1.000000e+01 2.842171e-14
      vertex 1.000000e+01 -1.000000e+01 1.500000e+00
      vertex 1.000000e+01 -1.000000e+01 2.842171e-14
    endloop
  endfacet
endsolid Default
