<?xml version="1.0" encoding="UTF-8" standalone="no"?>
<!-- Created with Fritzing (http://www.fritzing.org/) -->

<svg
   xmlns:dc="http://purl.org/dc/elements/1.1/"
   xmlns:cc="http://creativecommons.org/ns#"
   xmlns:rdf="http://www.w3.org/1999/02/22-rdf-syntax-ns#"
   xmlns:svg="http://www.w3.org/2000/svg"
   xmlns="http://www.w3.org/2000/svg"
   xmlns:sodipodi="http://sodipodi.sourceforge.net/DTD/sodipodi-0.dtd"
   xmlns:inkscape="http://www.inkscape.org/namespaces/inkscape"
   width="120.32478"
   x="0in"
   version="1.2"
   y="0in"
   height="108.44373"
   viewBox="0 0 96.259827 86.754853"
   id="svg6325"
   inkscape:version="0.48.2 r9819"
   sodipodi:docname="lilytiny_lilytwinkle_schematic.svg">
  <metadata
     id="metadata6416">
    <rdf:RDF>
      <cc:Work
         rdf:about="">
        <dc:format>image/svg+xml</dc:format>
        <dc:type
           rdf:resource="http://purl.org/dc/dcmitype/StillImage" />
      </cc:Work>
    </rdf:RDF>
  </metadata>
  <defs
     id="defs6414" />
  <sodipodi:namedview
     pagecolor="#ffffff"
     bordercolor="#666666"
     borderopacity="1"
     objecttolerance="10"
     gridtolerance="10"
     guidetolerance="10"
     inkscape:pageopacity="0"
     inkscape:pageshadow="2"
     inkscape:window-width="1920"
     inkscape:window-height="996"
     id="namedview6412"
     showgrid="false"
     fit-margin-top="0"
     fit-margin-left="0"
     fit-margin-right="0"
     fit-margin-bottom="0"
     inkscape:zoom="5.0981526"
     inkscape:cx="34.473965"
     inkscape:cy="47.087384"
     inkscape:window-x="-8"
     inkscape:window-y="-8"
     inkscape:window-maximized="1"
     inkscape:current-layer="svg6325" />
  <rect
     width="58.397957"
     x="15.825089"
     y="0.89734137"
     height="84.959999"
     id="rect6379"
     style="fill:none;stroke:#000000;stroke-width:1.79079282;stroke-linecap:round;stroke-linejoin:round" />
  <line
     y1="22.497341"
     x1="0.97814906"
     y2="22.497341"
     x2="15.082741"
     id="line6382"
     style="fill:none;stroke:#000000;stroke-width:1.79079282;stroke-linecap:round;stroke-linejoin:round" />
  <rect
     width="14.846938"
     x="0.23580135"
     y="21.417341"
     height="2.1600001"
     id="connector0pin"
     style="fill:none;stroke:none" />
  <line
     y1="22.497341"
     x1="74.583046"
     y2="22.497341"
     x2="95.10305"
     id="line6387"
     style="fill:none;stroke:#000000;stroke-width:2.16000009;stroke-linecap:round;stroke-linejoin:round" />
  <rect
     width="21.6"
     x="74.583046"
     y="21.417341"
     height="2.1600001"
     id="connector5pin"
     style="fill:none;stroke:none" />
  <line
     y1="43.737339"
     x1="0.97814906"
     y2="43.737339"
     x2="15.082741"
     id="line6392"
     style="fill:none;stroke:#000000;stroke-width:1.79079282;stroke-linecap:round;stroke-linejoin:round" />
  <rect
     width="14.846938"
     x="0.23580135"
     y="42.657341"
     height="2.1600001"
     id="connector1pin"
     style="fill:none;stroke:none" />
  <line
     y1="43.737339"
     x1="74.583046"
     y2="43.737339"
     x2="95.10305"
     id="line6397"
     style="fill:none;stroke:#000000;stroke-width:2.16000009;stroke-linecap:round;stroke-linejoin:round" />
  <rect
     width="21.6"
     x="74.583046"
     y="42.657341"
     height="2.1600001"
     id="connector4pin"
     style="fill:none;stroke:none" />
  <line
     y1="64.977348"
     x1="0.97814906"
     y2="64.977348"
     x2="15.082741"
     id="line6402"
     style="fill:none;stroke:#000000;stroke-width:1.79079282;stroke-linecap:round;stroke-linejoin:round" />
  <rect
     width="14.846938"
     x="0.23580135"
     y="63.897343"
     height="2.1600001"
     id="connector2pin"
     style="fill:none;stroke:none" />
  <line
     y1="64.977348"
     x1="74.583046"
     y2="64.977348"
     x2="95.10305"
     id="line6407"
     style="fill:none;stroke:#000000;stroke-width:2.16000009;stroke-linecap:round;stroke-linejoin:round" />
  <rect
     width="21.6"
     x="74.583046"
     y="63.897343"
     height="2.1600001"
     id="connector3pin"
     style="fill:none;stroke:none" />
  <g
     style="font-size:7.19999981px;font-style:normal;font-variant:normal;font-weight:normal;font-stretch:normal;line-height:125%;letter-spacing:0px;word-spacing:0px;fill:#000000;fill-opacity:1;stroke:none;font-family:Droid Sans;-inkscape-font-specification:Droid Sans"
     id="text6471">
    <path
       d="m 33.468207,8.8184357 0,-5.1398436 0.653906,0 0,4.5562498 2.014453,0 0,0.5835938 z"
       style="text-align:center;text-anchor:middle"
       id="path6524" />
    <path
       d="m 37.56391,8.8184357 -0.639844,0 0,-3.8601562 0.639844,0 z M 36.874848,3.9141389 c -10e-7,-0.1406199 0.03574,-0.2425729 0.107226,-0.3058593 0.07148,-0.063276 0.15996,-0.094917 0.26543,-0.094922 0.05156,5.3e-6 0.100194,0.00762 0.145898,0.022852 0.0457,0.01524 0.08555,0.039263 0.119531,0.07207 0.03398,0.032818 0.06094,0.074419 0.08086,0.1248046 0.01992,0.050396 0.02988,0.1107472 0.02988,0.1810547 -2e-6,0.1359423 -0.03692,0.2373094 -0.110743,0.3041016 -0.07383,0.066801 -0.162305,0.1001998 -0.265429,0.1001953 -0.10547,4.5e-6 -0.193946,-0.032808 -0.26543,-0.098437 -0.07148,-0.06562 -0.107227,-0.1675734 -0.107226,-0.3058594 z"
       style="text-align:center;text-anchor:middle"
       id="path6526" />
    <path
       d="m 39.434223,8.8184357 -0.639844,0 0,-5.4703124 0.639844,0 z"
       style="text-align:center;text-anchor:middle"
       id="path6528" />
    <path
       d="m 40.088129,4.9582795 0.664453,0 0.755859,2.1550781 c 0.03281,0.093752 0.06621,0.192189 0.100195,0.2953125 0.03398,0.1031263 0.06562,0.2062512 0.09492,0.309375 0.0293,0.103126 0.05449,0.2027352 0.07559,0.2988281 0.02109,0.096094 0.03633,0.1851569 0.0457,0.2671875 l 0.02109,0 c 0.01172,-0.058593 0.03047,-0.1382806 0.05625,-0.2390625 0.02578,-0.1007804 0.05449,-0.2080068 0.08613,-0.3216797 0.03164,-0.1136707 0.06445,-0.2255846 0.09844,-0.3357422 0.03398,-0.1101547 0.06387,-0.2039046 0.08965,-0.28125 l 0.699609,-2.1480468 0.660938,0 -1.525781,4.3628905 c -0.06563,0.1898431 -0.136526,0.3603507 -0.212696,0.5115235 -0.07617,0.1511707 -0.16465,0.2794905 -0.265429,0.3849605 -0.100783,0.105468 -0.219142,0.186913 -0.355079,0.244336 -0.135938,0.05742 -0.297657,0.08613 -0.485156,0.08613 -0.121875,-2e-6 -0.227344,-0.0064 -0.316406,-0.01934 -0.08906,-0.01289 -0.165235,-0.02637 -0.228516,-0.04043 l 0,-0.5097651 c 0.04922,0.011718 0.111328,0.021678 0.186328,0.029883 0.075,0.0082 0.153516,0.0123 0.235547,0.0123 0.1125,-10e-7 0.209765,-0.01348 0.291797,-0.040429 0.08203,-0.026954 0.153515,-0.066212 0.214453,-0.1177734 0.06094,-0.051564 0.113085,-0.1148447 0.156446,-0.1898438 0.04336,-0.075001 0.08262,-0.1605475 0.117773,-0.2566406 l 0.200391,-0.5625 z"
       style="text-align:center;text-anchor:middle"
       id="path6530" />
    <path
       d="m 45.765863,8.8184357 -0.657422,0 0,-4.5632812 -1.469532,0 0,-0.5765624 3.592969,0 0,0.5765624 -1.466015,0 z"
       style="text-align:center;text-anchor:middle"
       id="path6532" />
    <path
       d="m 48.560785,8.8184357 -0.639844,0 0,-3.8601562 0.639844,0 z M 47.871722,3.9141389 c 0,-0.1406199 0.03574,-0.2425729 0.107227,-0.3058593 0.07148,-0.063276 0.15996,-0.094917 0.26543,-0.094922 0.05156,5.3e-6 0.100194,0.00762 0.145898,0.022852 0.0457,0.01524 0.08555,0.039263 0.119531,0.07207 0.03398,0.032818 0.06094,0.074419 0.08086,0.1248046 0.01992,0.050396 0.02988,0.1107472 0.02988,0.1810547 -1e-6,0.1359423 -0.03692,0.2373094 -0.110742,0.3041016 -0.07383,0.066801 -0.162305,0.1001998 -0.265429,0.1001953 -0.10547,4.5e-6 -0.193946,-0.032808 -0.26543,-0.098437 -0.07149,-0.06562 -0.107227,-0.1675734 -0.107227,-0.3058594 z"
       style="text-align:center;text-anchor:middle"
       id="path6534" />
    <path
       d="m 52.202972,8.8184357 0,-2.4855468 c -4e-6,-0.3046847 -0.06153,-0.5332001 -0.184571,-0.6855469 -0.123049,-0.1523404 -0.315823,-0.2285122 -0.57832,-0.2285156 -0.189846,3.4e-6 -0.349221,0.030472 -0.478125,0.091406 -0.128908,0.060941 -0.232619,0.1511751 -0.311133,0.2707031 -0.07852,0.1195342 -0.134767,0.2660184 -0.16875,0.4394532 -0.03399,0.1734399 -0.05098,0.3726584 -0.05098,0.5976562 l 0,2.0003906 -0.639844,0 0,-3.8601562 0.520312,0 0.09141,0.5203125 0.03516,0 c 0.05859,-0.1007778 0.128319,-0.1880824 0.209179,-0.261914 0.08086,-0.073824 0.169335,-0.1353479 0.26543,-0.1845704 0.09609,-0.049215 0.198045,-0.085543 0.30586,-0.1089843 0.10781,-0.023434 0.217966,-0.035152 0.330468,-0.035156 0.428904,4e-6 0.751755,0.1119179 0.968555,0.3357422 0.216793,0.2238315 0.325192,0.5818389 0.325195,1.0740234 l 0,2.5207031 z"
       style="text-align:center;text-anchor:middle"
       id="path6536" />
    <path
       d="m 53.461566,4.9582795 0.664453,0 0.75586,2.1550781 c 0.03281,0.093752 0.06621,0.192189 0.100195,0.2953125 0.03398,0.1031263 0.06562,0.2062512 0.09492,0.309375 0.02929,0.103126 0.05449,0.2027352 0.07559,0.2988281 0.02109,0.096094 0.03633,0.1851569 0.0457,0.2671875 l 0.02109,0 c 0.01172,-0.058593 0.03047,-0.1382806 0.05625,-0.2390625 0.02578,-0.1007804 0.05449,-0.2080068 0.08613,-0.3216797 0.03164,-0.1136707 0.06445,-0.2255846 0.09844,-0.3357422 0.03398,-0.1101547 0.06386,-0.2039046 0.08965,-0.28125 l 0.69961,-2.1480468 0.660937,0 -1.525781,4.3628905 c -0.06563,0.1898431 -0.136525,0.3603507 -0.212695,0.5115235 -0.07617,0.1511707 -0.16465,0.2794905 -0.26543,0.3849605 -0.100783,0.105468 -0.219142,0.186913 -0.355078,0.244336 -0.135939,0.05742 -0.297657,0.08613 -0.485156,0.08613 -0.121876,-2e-6 -0.227345,-0.0064 -0.316407,-0.01934 -0.08906,-0.01289 -0.165234,-0.02637 -0.228515,-0.04043 l 0,-0.5097651 c 0.04922,0.011718 0.111328,0.021678 0.186328,0.029883 0.075,0.0082 0.153515,0.0123 0.235547,0.0123 0.112499,-10e-7 0.209765,-0.01348 0.291797,-0.040429 0.08203,-0.026954 0.153514,-0.066212 0.214453,-0.1177734 0.06094,-0.051564 0.113084,-0.1148447 0.156445,-0.1898438 0.04336,-0.075001 0.08262,-0.1605475 0.117773,-0.2566406 l 0.200391,-0.5625 z"
       style="text-align:center;text-anchor:middle"
       id="path6538" />
    <path
       d="m 27.892426,17.818435 0,-5.139843 0.653906,0 0,4.55625 2.014453,0 0,0.583593 z"
       style="text-align:center;text-anchor:middle"
       id="path6540" />
    <path
       d="m 31.988129,17.818435 -0.639844,0 0,-3.860156 0.639844,0 z m -0.689063,-4.904296 c 0,-0.14062 0.03574,-0.242573 0.107227,-0.30586 0.07148,-0.06328 0.15996,-0.09492 0.26543,-0.09492 0.05156,6e-6 0.100194,0.0076 0.145898,0.02285 0.0457,0.01524 0.08555,0.03926 0.119531,0.07207 0.03398,0.03282 0.06094,0.07442 0.08086,0.124805 0.01992,0.0504 0.02988,0.110747 0.02988,0.181055 -2e-6,0.135942 -0.03692,0.237309 -0.110743,0.304101 -0.07383,0.0668 -0.162305,0.1002 -0.265429,0.100196 -0.10547,4e-6 -0.193946,-0.03281 -0.26543,-0.09844 -0.07149,-0.06562 -0.107227,-0.167573 -0.107227,-0.305859 z"
       style="text-align:center;text-anchor:middle"
       id="path6542" />
    <path
       d="m 33.858442,17.818435 -0.639844,0 0,-5.470312 0.639844,0 z"
       style="text-align:center;text-anchor:middle"
       id="path6544" />
    <path
       d="m 34.512348,13.958279 0.664453,0 0.755859,2.155078 c 0.03281,0.09375 0.06621,0.192189 0.100195,0.295313 0.03398,0.103126 0.06562,0.206251 0.09492,0.309375 0.02929,0.103126 0.05449,0.202735 0.07559,0.298828 0.02109,0.09609 0.03633,0.185157 0.0457,0.267187 l 0.02109,0 c 0.01172,-0.05859 0.03047,-0.13828 0.05625,-0.239062 0.02578,-0.10078 0.05449,-0.208007 0.08613,-0.32168 0.03164,-0.11367 0.06445,-0.225584 0.09844,-0.335742 0.03398,-0.110155 0.06386,-0.203905 0.08965,-0.28125 l 0.699609,-2.148047 0.660938,0 -1.525782,4.362891 c -0.06563,0.189843 -0.136525,0.36035 -0.212695,0.511523 -0.07617,0.151171 -0.16465,0.279491 -0.26543,0.384961 -0.100782,0.105467 -0.219141,0.186913 -0.355078,0.244336 -0.135938,0.05742 -0.297657,0.08613 -0.485156,0.08613 -0.121875,-2e-6 -0.227344,-0.0064 -0.316406,-0.01934 -0.08906,-0.01289 -0.165235,-0.02637 -0.228516,-0.04043 l 0,-0.509765 c 0.04922,0.01172 0.111328,0.02168 0.186328,0.02988 0.075,0.0082 0.153516,0.0123 0.235547,0.01231 0.1125,-1e-6 0.209765,-0.01348 0.291797,-0.04043 0.08203,-0.02695 0.153515,-0.06621 0.214453,-0.117773 0.06094,-0.05156 0.113085,-0.114845 0.156446,-0.189844 0.04336,-0.075 0.08262,-0.160547 0.117773,-0.25664 l 0.200391,-0.5625 z"
       style="text-align:center;text-anchor:middle"
       id="path6546" />
    <path
       d="m 40.190081,17.818435 -0.657421,0 0,-4.563281 -1.469532,0 0,-0.576562 3.592969,0 0,0.576562 -1.466016,0 z"
       style="text-align:center;text-anchor:middle"
       id="path6548" />
    <path
       d="M 45.277191,17.818435 44.686566,15.65281 c -0.0094,-0.04218 -0.0211,-0.08965 -0.03516,-0.142382 -0.01406,-0.05273 -0.02813,-0.108396 -0.04219,-0.166993 -0.01407,-0.05859 -0.02871,-0.118356 -0.04395,-0.179296 -0.01524,-0.06094 -0.02989,-0.120701 -0.04395,-0.179297 -0.03281,-0.135935 -0.0668,-0.27656 -0.101953,-0.421875 l -0.02109,0 c -0.03281,0.147659 -0.06446,0.289456 -0.09492,0.42539 -0.02578,0.117191 -0.05332,0.237894 -0.08262,0.36211 -0.0293,0.124221 -0.05684,0.229689 -0.08262,0.316406 l -0.604688,2.151562 -0.741797,0 -0.98789,-3.860156 0.671484,0 0.460547,2.053125 c 0.02344,0.105471 0.04687,0.219728 0.07031,0.342774 0.02344,0.123048 0.0457,0.244923 0.0668,0.365625 0.02109,0.120704 0.03984,0.234376 0.05625,0.341015 0.01641,0.106642 0.0293,0.193946 0.03867,0.261914 l 0.02109,0 c 0.01172,-0.06094 0.02754,-0.142382 0.04746,-0.244336 0.01992,-0.101952 0.04219,-0.209764 0.0668,-0.323437 0.02461,-0.113671 0.0498,-0.226171 0.07559,-0.3375 0.02578,-0.111327 0.05039,-0.205663 0.07383,-0.283008 l 0.629297,-2.176172 0.689062,0 0.604688,2.176172 c 0.02109,0.07969 0.04511,0.173439 0.07207,0.28125 0.02695,0.107814 0.05332,0.217384 0.0791,0.328711 0.02578,0.111329 0.04921,0.218556 0.07031,0.32168 0.02109,0.103125 0.03632,0.188672 0.0457,0.25664 l 0.02109,0 c 0.007,-0.06094 0.01816,-0.142382 0.0334,-0.244336 0.01523,-0.101952 0.03339,-0.213866 0.05449,-0.335742 0.02109,-0.121874 0.04394,-0.246678 0.06855,-0.374414 0.02461,-0.127733 0.0498,-0.246678 0.07559,-0.356836 l 0.481641,-2.053125 0.653906,0 -0.998437,3.860156 z"
       style="text-align:center;text-anchor:middle"
       id="path6550" />
    <path
       d="m 48.356878,17.818435 -0.639844,0 0,-3.860156 0.639844,0 z m -0.689063,-4.904296 c 0,-0.14062 0.03574,-0.242573 0.107227,-0.30586 0.07148,-0.06328 0.15996,-0.09492 0.265429,-0.09492 0.05156,6e-6 0.100195,0.0076 0.145899,0.02285 0.0457,0.01524 0.08555,0.03926 0.119531,0.07207 0.03398,0.03282 0.06094,0.07442 0.08086,0.124805 0.01992,0.0504 0.02988,0.110747 0.02988,0.181055 -10e-7,0.135942 -0.03692,0.237309 -0.110742,0.304101 -0.07383,0.0668 -0.162306,0.1002 -0.26543,0.100196 -0.105469,4e-6 -0.193946,-0.03281 -0.265429,-0.09844 -0.07148,-0.06562 -0.107227,-0.167573 -0.107227,-0.305859 z"
       style="text-align:center;text-anchor:middle"
       id="path6552" />
    <path
       d="m 51.999066,17.818435 0,-2.485546 c -3e-6,-0.304685 -0.06153,-0.5332 -0.18457,-0.685547 -0.12305,-0.152341 -0.315823,-0.228512 -0.57832,-0.228516 -0.189846,4e-6 -0.349221,0.03047 -0.478125,0.09141 -0.128908,0.06094 -0.232619,0.151175 -0.311133,0.270704 -0.07852,0.119534 -0.134767,0.266018 -0.16875,0.439453 -0.03399,0.17344 -0.05098,0.372658 -0.05098,0.597656 l 0,2.00039 -0.639844,0 0,-3.860156 0.520313,0 0.09141,0.520313 0.03516,0 c 0.05859,-0.100778 0.128319,-0.188083 0.20918,-0.261914 0.08086,-0.07382 0.169334,-0.135348 0.26543,-0.184571 0.09609,-0.04922 0.198045,-0.08554 0.305859,-0.108984 0.107811,-0.02343 0.217967,-0.03515 0.330469,-0.03516 0.428903,4e-6 0.751755,0.111918 0.968555,0.335742 0.216793,0.223831 0.325191,0.581839 0.325195,1.074023 l 0,2.520703 z"
       style="text-align:center;text-anchor:middle"
       id="path6554" />
    <path
       d="m 54.424846,15.825076 0.47461,-0.597656 1.030078,-1.269141 0.741797,0 -1.409766,1.669922 1.504688,2.190234 -0.734766,0 -1.18125,-1.771875 -0.383203,0.288282 0,1.483593 -0.632813,0 0,-5.470312 0.632813,0 0,2.510156 -0.05625,0.966797 z"
       style="text-align:center;text-anchor:middle"
       id="path6556" />
    <path
       d="m 58.045942,17.818435 -0.639844,0 0,-5.470312 0.639844,0 z"
       style="text-align:center;text-anchor:middle"
       id="path6558" />
    <path
       d="m 60.802191,17.888748 c -0.257815,0 -0.493361,-0.04336 -0.706641,-0.130078 -0.213282,-0.08672 -0.396681,-0.213281 -0.550195,-0.379688 -0.153516,-0.166405 -0.272462,-0.372655 -0.356836,-0.61875 -0.08438,-0.246092 -0.126563,-0.527342 -0.126563,-0.84375 0,-0.318747 0.03867,-0.603513 0.116016,-0.854296 0.07734,-0.250779 0.186328,-0.463474 0.326953,-0.638086 0.140624,-0.174606 0.308788,-0.307614 0.504492,-0.399024 0.195702,-0.0914 0.411913,-0.137105 0.648633,-0.137109 0.232029,4e-6 0.440623,0.04161 0.625781,0.124804 0.185154,0.08321 0.342185,0.200395 0.471094,0.351563 0.128903,0.151175 0.227927,0.332816 0.29707,0.544922 0.06914,0.212112 0.103708,0.447073 0.103711,0.704883 l 0,0.397265 -2.432812,0 c 0.01172,0.452345 0.107225,0.785157 0.286523,0.998438 0.179296,0.213282 0.445897,0.319922 0.799805,0.319922 0.119529,0 0.230271,-0.0059 0.332227,-0.01758 0.10195,-0.01172 0.200388,-0.02871 0.295312,-0.05098 0.09492,-0.02227 0.186911,-0.05039 0.275977,-0.08438 0.08906,-0.03398 0.179293,-0.07207 0.270703,-0.114258 l 0,0.569531 c -0.09375,0.04453 -0.185746,0.0832 -0.275977,0.116016 -0.09024,0.03281 -0.182815,0.05977 -0.277734,0.08086 -0.09492,0.02109 -0.193362,0.03633 -0.295313,0.0457 -0.101955,0.0094 -0.212697,0.01406 -0.332226,0.01406 z m -0.158203,-3.469922 c -0.26719,4e-6 -0.478713,0.09141 -0.634571,0.274219 -0.15586,0.182815 -0.24668,0.448831 -0.272461,0.798047 l 1.729688,0 c -3e-6,-0.159373 -0.01582,-0.305271 -0.04746,-0.437696 -0.03164,-0.132419 -0.08086,-0.245504 -0.147656,-0.339257 -0.0668,-0.09375 -0.151761,-0.166403 -0.254883,-0.217969 -0.103127,-0.05156 -0.227346,-0.07734 -0.372656,-0.07734 z"
       style="text-align:center;text-anchor:middle"
       id="path6560" />
  </g>
  <g
     style="font-size:7.19999981px;font-style:normal;font-variant:normal;font-weight:normal;font-stretch:normal;line-height:125%;letter-spacing:0px;word-spacing:0px;fill:#000000;fill-opacity:1;stroke:none;font-family:Droid Sans;-inkscape-font-specification:Droid Sans"
     id="text6477">
    <path
       d="m 22.857529,19.927419 0.696093,0 -1.71914,5.139844 -0.657422,0 -1.712109,-5.139844 0.692578,0 1.037109,3.258984 c 0.06797,0.213283 0.126561,0.418947 0.175781,0.616992 0.04922,0.198048 0.09375,0.38379 0.133594,0.557227 0.03515,-0.173437 0.07968,-0.359179 0.133594,-0.557227 0.0539,-0.198045 0.117185,-0.41074 0.189843,-0.638085 z"
       style=""
       id="path6519" />
    <path
       d="m 25.276279,22.792653 -1.360547,0 0,-0.527343 1.360547,0 0,-1.367578 0.527343,0 0,1.367578 1.360547,0 0,0.527343 -1.360547,0 0,1.353516 -0.527343,0 z"
       style=""
       id="path6521" />
  </g>
  <g
     style="font-size:7.19999981px;font-style:normal;font-variant:normal;font-weight:normal;font-stretch:normal;line-height:125%;letter-spacing:0px;word-spacing:0px;fill:#000000;fill-opacity:1;stroke:none;font-family:Droid Sans;-inkscape-font-specification:Droid Sans"
     id="text6481">
    <path
       d="m 22.857529,41.167419 0.696093,0 -1.71914,5.139843 -0.657422,0 -1.712109,-5.139843 0.692578,0 1.037109,3.258984 c 0.06797,0.213283 0.126561,0.418947 0.175781,0.616992 0.04922,0.198048 0.09375,0.38379 0.133594,0.557227 0.03515,-0.173437 0.07968,-0.359179 0.133594,-0.557227 0.0539,-0.198045 0.117185,-0.41074 0.189843,-0.638086 z"
       style=""
       id="path6514" />
    <path
       d="m 23.845419,44.672497 0,-0.590625 1.74375,0 0,0.590625 z"
       style=""
       id="path6516" />
  </g>
  <g
     style="font-size:7.19999981px;font-style:normal;font-variant:normal;font-weight:normal;font-stretch:normal;line-height:125%;letter-spacing:0px;word-spacing:0px;fill:#000000;fill-opacity:1;stroke:none;font-family:Droid Sans;-inkscape-font-specification:Droid Sans"
     id="text6485">
    <path
       d="m 23.093075,64.970319 c -3e-6,0.414846 -0.02989,0.78633 -0.08965,1.114453 -0.05977,0.328126 -0.155863,0.60586 -0.288281,0.833203 -0.132425,0.227344 -0.302933,0.400781 -0.511524,0.520312 -0.208596,0.119532 -0.461721,0.179297 -0.759375,0.179297 -0.276564,0 -0.517384,-0.05976 -0.722461,-0.179297 -0.205079,-0.119531 -0.375,-0.292968 -0.509765,-0.520312 -0.134766,-0.227343 -0.235548,-0.505077 -0.302344,-0.833203 -0.0668,-0.328123 -0.100196,-0.699607 -0.100195,-1.114453 -10e-7,-0.414841 0.02988,-0.786325 0.08965,-1.114453 0.05976,-0.328121 0.154687,-0.60527 0.284766,-0.831446 0.130077,-0.226167 0.298827,-0.399018 0.50625,-0.518554 0.20742,-0.119526 0.458787,-0.179292 0.754101,-0.179297 0.278904,5e-6 0.521482,0.05918 0.727735,0.177539 0.206247,0.118364 0.37734,0.29063 0.513281,0.516797 0.135934,0.226176 0.237887,0.503324 0.305859,0.831445 0.06797,0.328128 0.10195,0.700784 0.101953,1.117969 z m -2.633203,0 c -1e-6,0.351564 0.01758,0.658595 0.05273,0.921093 0.03515,0.262502 0.09141,0.481056 0.16875,0.655664 0.07734,0.174611 0.178709,0.305861 0.304101,0.39375 0.125389,0.08789 0.278319,0.131837 0.458789,0.131836 0.180467,1e-6 0.333982,-0.04336 0.460547,-0.130078 0.12656,-0.08672 0.230271,-0.216796 0.311133,-0.390234 0.08086,-0.173436 0.13945,-0.391991 0.175781,-0.655664 0.03632,-0.26367 0.05449,-0.572459 0.05449,-0.926367 -2e-6,-0.35156 -0.01817,-0.658591 -0.05449,-0.921094 -0.03633,-0.262496 -0.09492,-0.480465 -0.175781,-0.653906 -0.08086,-0.173433 -0.184573,-0.303511 -0.311133,-0.390235 -0.126565,-0.08671 -0.28008,-0.130073 -0.460547,-0.130078 -0.18047,5e-6 -0.3334,0.04336 -0.458789,0.130078 -0.125392,0.08672 -0.226759,0.216802 -0.304101,0.390235 -0.07734,0.173441 -0.133595,0.39141 -0.16875,0.653906 -0.03516,0.262503 -0.05274,0.569534 -0.05273,0.921094 z"
       style=""
       id="path6511" />
  </g>
  <g
     style="font-size:7.19999981px;font-style:normal;font-variant:normal;font-weight:normal;font-stretch:normal;line-height:125%;letter-spacing:0px;word-spacing:0px;fill:#000000;fill-opacity:1;stroke:none;font-family:Droid Sans;-inkscape-font-specification:Droid Sans"
     id="text6489">
    <path
       d="m 66.058966,67.547272 -0.61875,0 0,-3.209766 c -2e-6,-0.100778 5.84e-4,-0.20859 0.0018,-0.323437 0.0012,-0.11484 0.0035,-0.229098 0.007,-0.342774 0.0035,-0.113668 0.007,-0.222652 0.01055,-0.326953 0.0035,-0.104292 0.0064,-0.196285 0.0088,-0.275976 -0.03985,0.04219 -0.075,0.07852 -0.105469,0.108984 -0.03047,0.03047 -0.06152,0.05977 -0.09316,0.08789 -0.03164,0.02813 -0.06504,0.05801 -0.100195,0.08965 -0.03516,0.03164 -0.07734,0.06856 -0.126563,0.110742 l -0.520312,0.425391 -0.3375,-0.432422 1.346484,-1.051172 0.527344,0 z"
       style=""
       id="path6508" />
  </g>
  <g
     style="font-size:7.19999981px;font-style:normal;font-variant:normal;font-weight:normal;font-stretch:normal;line-height:125%;letter-spacing:0px;word-spacing:0px;fill:#000000;fill-opacity:1;stroke:none;font-family:Droid Sans;-inkscape-font-specification:Droid Sans"
     id="text6497">
    <path
       d="m 67.103107,46.307262 -3.20625,0 0,-0.548437 1.230468,-1.339453 c 0.17578,-0.189842 0.332811,-0.363279 0.471094,-0.520313 0.138279,-0.157028 0.256053,-0.310544 0.35332,-0.460547 0.09726,-0.149996 0.171678,-0.300582 0.223243,-0.451757 0.05156,-0.151169 0.07734,-0.315817 0.07734,-0.493946 -2e-6,-0.138277 -0.01992,-0.260152 -0.05976,-0.365625 -0.03985,-0.105464 -0.09668,-0.195112 -0.170508,-0.268945 -0.07383,-0.07382 -0.161135,-0.129488 -0.261914,-0.166992 -0.100783,-0.03749 -0.213283,-0.05624 -0.3375,-0.05625 -0.222658,5e-6 -0.423634,0.04512 -0.60293,0.135351 -0.179298,0.09024 -0.349805,0.205669 -0.511523,0.34629 l -0.358594,-0.41836 c 0.09375,-0.08437 0.194531,-0.163472 0.302344,-0.237305 0.107811,-0.07382 0.223827,-0.13769 0.348047,-0.191601 0.124217,-0.0539 0.255467,-0.09667 0.39375,-0.12832 0.138279,-0.03164 0.283592,-0.04746 0.435937,-0.04746 0.224998,5e-6 0.428318,0.03164 0.609961,0.09492 0.181638,0.06329 0.335739,0.154106 0.462305,0.27246 0.126559,0.118365 0.224411,0.262505 0.293554,0.432422 0.06914,0.169926 0.103708,0.361528 0.103711,0.574805 -3e-6,0.199222 -0.03106,0.389066 -0.09316,0.569531 -0.06211,0.180472 -0.147659,0.358011 -0.25664,0.532617 -0.108988,0.174612 -0.239066,0.349807 -0.390235,0.525586 -0.151174,0.175784 -0.31465,0.358596 -0.490429,0.548438 l -0.987891,1.051172 0,0.02813 2.422266,0 z"
       style=""
       id="path6502" />
  </g>
  <g
     style="font-size:7.19999981px;font-style:normal;font-variant:normal;font-weight:normal;font-stretch:normal;line-height:125%;letter-spacing:0px;word-spacing:0px;fill:#000000;fill-opacity:1;stroke:none;font-family:Droid Sans;-inkscape-font-specification:Droid Sans"
     id="text3034">
    <path
       d="m 66.966002,21.131521 c -4e-6,0.171098 -0.02696,0.326957 -0.08086,0.467578 -0.05391,0.140629 -0.129495,0.262504 -0.226757,0.365625 -0.09727,0.103128 -0.21387,0.188089 -0.349805,0.254883 -0.13594,0.0668 -0.287112,0.114261 -0.453516,0.142383 l 0,0.02109 c 0.414841,0.05157 0.730075,0.183401 0.945703,0.395508 0.215622,0.212111 0.323434,0.488087 0.323438,0.827929 -4e-6,0.225001 -0.03809,0.431251 -0.114258,0.61875 -0.07617,0.187501 -0.191605,0.349219 -0.346289,0.485156 -0.15469,0.135938 -0.350393,0.241407 -0.587109,0.316407 -0.236721,0.075 -0.516799,0.1125 -0.840235,0.1125 -0.25547,0 -0.49629,-0.01992 -0.722461,-0.05977 -0.226172,-0.03984 -0.438867,-0.1125 -0.638085,-0.217969 l 0,-0.597656 c 0.203905,0.107813 0.424803,0.191016 0.662695,0.249609 0.237889,0.0586 0.465819,0.08789 0.683789,0.08789 0.215623,1e-6 0.401951,-0.02344 0.558984,-0.07031 0.157029,-0.04687 0.286521,-0.113672 0.388477,-0.200391 0.10195,-0.08672 0.17695,-0.193358 0.225,-0.319922 0.04804,-0.126561 0.07207,-0.268358 0.07207,-0.42539 -3e-6,-0.159374 -0.03106,-0.295897 -0.09316,-0.409571 -0.06211,-0.11367 -0.150589,-0.20742 -0.26543,-0.28125 -0.114846,-0.07383 -0.254885,-0.128318 -0.420117,-0.163476 -0.165236,-0.03515 -0.35215,-0.05273 -0.560742,-0.05274 l -0.467578,0 0,-0.530859 0.467578,0 c 0.189842,3e-6 0.358592,-0.02343 0.50625,-0.07031 0.147654,-0.04687 0.271287,-0.113668 0.370898,-0.20039 0.09961,-0.08672 0.175193,-0.189841 0.226758,-0.309375 0.05156,-0.119528 0.07734,-0.250778 0.07734,-0.39375 -3e-6,-0.121871 -0.0211,-0.230855 -0.06328,-0.326953 -0.04219,-0.09609 -0.101956,-0.177535 -0.179297,-0.244336 -0.07735,-0.06679 -0.169924,-0.117769 -0.277735,-0.15293 -0.107814,-0.03515 -0.227345,-0.05273 -0.358593,-0.05273 -0.250783,4e-6 -0.471681,0.03926 -0.662696,0.117773 -0.191016,0.07852 -0.373243,0.181059 -0.546679,0.307617 l -0.323438,-0.439453 c 0.08906,-0.07265 0.188086,-0.14062 0.297071,-0.203906 0.108983,-0.06328 0.227928,-0.11894 0.356835,-0.166992 0.128906,-0.04804 0.266601,-0.08613 0.413086,-0.114258 0.146483,-0.02812 0.301757,-0.04218 0.465821,-0.04219 0.253123,6e-6 0.475193,0.03165 0.666211,0.09492 0.191013,0.06329 0.350973,0.151763 0.479882,0.26543 0.128904,0.113677 0.226169,0.248442 0.291797,0.404297 0.06562,0.155864 0.09843,0.326371 0.09844,0.511523 z"
       style=""
       id="path3039" />
  </g>
</svg>
