<?xml version="1.0" encoding="UTF-8" standalone="no"?>
<!-- Created with Inkscape (http://www.inkscape.org/) -->

<svg
   xmlns:dc="http://purl.org/dc/elements/1.1/"
   xmlns:cc="http://creativecommons.org/ns#"
   xmlns:rdf="http://www.w3.org/1999/02/22-rdf-syntax-ns#"
   xmlns:svg="http://www.w3.org/2000/svg"
   xmlns="http://www.w3.org/2000/svg"
   xmlns:sodipodi="http://sodipodi.sourceforge.net/DTD/sodipodi-0.dtd"
   xmlns:inkscape="http://www.inkscape.org/namespaces/inkscape"
   id="svg2"
   version="1.1"
   inkscape:version="0.48.2 r9819"
   width="72"
   height="71.998734"
   xml:space="preserve"
   sodipodi:docname="lilytiny_lilytwinkle_pcb.svg"><metadata
     id="metadata8"><rdf:RDF><cc:Work
         rdf:about=""><dc:format>image/svg+xml</dc:format><dc:type
           rdf:resource="http://purl.org/dc/dcmitype/StillImage" /><dc:title></dc:title></cc:Work></rdf:RDF></metadata><defs
     id="defs6"><clipPath
       clipPathUnits="userSpaceOnUse"
       id="clipPath16"><path
         d="M 0,792 612,792 612,0 0,0 0,792 z"
         id="path18"
         inkscape:connector-curvature="0" /></clipPath><clipPath
       clipPathUnits="userSpaceOnUse"
       id="clipPath26"><path
         d="m -31.2827,31.2828 62.565,0 0,-62.5655 -62.565,0 0,62.5655 z"
         id="path28"
         inkscape:connector-curvature="0" /></clipPath><clipPath
       clipPathUnits="userSpaceOnUse"
       id="clipPath616"><path
         d="M 0,792 612,792 612,0 0,0 0,792 z"
         id="path618"
         inkscape:connector-curvature="0" /></clipPath><clipPath
       clipPathUnits="userSpaceOnUse"
       id="clipPath632"><path
         d="m 406.926,277.001 c -1.658,0 -3.001,-1.343 -3.001,-3 l 0,0 0,-7.333 c 0,-1.658 1.343,-3 3.001,-3 l 0,0 19.453,0 c 1.657,0 3,1.342 3,3 l 0,0 0,7.333 c 0,1.657 -1.343,3 -3,3 l 0,0 -19.453,0 z"
         id="path634"
         inkscape:connector-curvature="0" /></clipPath><clipPath
       clipPathUnits="userSpaceOnUse"
       id="clipPath644"><path
         d="M 0,792 612,792 612,0 0,0 0,792 z"
         id="path646"
         inkscape:connector-curvature="0" /></clipPath></defs><sodipodi:namedview
     pagecolor="#ffffff"
     bordercolor="#666666"
     borderopacity="1"
     objecttolerance="10"
     gridtolerance="10"
     guidetolerance="10"
     inkscape:pageopacity="0"
     inkscape:pageshadow="2"
     inkscape:window-width="1920"
     inkscape:window-height="1058"
     id="namedview4"
     showgrid="false"
     fit-margin-top="0"
     fit-margin-left="0"
     fit-margin-right="0"
     fit-margin-bottom="0"
     inkscape:zoom="5.3940105"
     inkscape:cx="55.36308"
     inkscape:cy="5.2609813"
     inkscape:window-x="1912"
     inkscape:window-y="-8"
     inkscape:window-maximized="1"
     inkscape:current-layer="g10" /><g
     id="g10"
     inkscape:groupmode="layer"
     inkscape:label="lilytiny01"
     transform="matrix(1.25,0,0,-1.25,-173.84928,451.21354)"><g
       id="silkscreen"><path
         inkscape:connector-curvature="0"
         id="path32"
         style="fill:none;stroke:#000000;stroke-width:0.21600001;stroke-miterlimit:4;stroke-opacity:1;stroke-dasharray:none"
         d="m 167.87942,360.97083 c 15.90518,0 28.8,-12.89381 28.8,-28.8 0,-15.90416 -12.89482,-28.79899 -28.8,-28.79899 -15.90517,0 -28.8,12.89483 -28.8,28.79899 0,15.90619 12.89483,28.8 28.8,28.8" /><path
         inkscape:connector-curvature="0"
         id="path44"
         style="fill:none;stroke:#000000;stroke-width:0.21600001;stroke-linecap:round;stroke-linejoin:miter;stroke-miterlimit:4;stroke-opacity:1;stroke-dasharray:none"
         d="m 150.27492,352.75267 0,-1.6591 m -0.82904,0.83006 1.65909,0" /><path
         inkscape:connector-curvature="0"
         id="path48"
         style="fill:none;stroke:#000000;stroke-width:0.21600001;stroke-linecap:round;stroke-linejoin:miter;stroke-miterlimit:4;stroke-opacity:1;stroke-dasharray:none"
         d="m 176.24043,355.10415 -0.41452,0.41554 m 1.24356,-0.41554 -0.82904,0 m 1.24458,0.41554 -0.41554,-0.41554 m 0.41554,0.83006 0,-0.41452 m -0.41554,0.82904 0.41554,-0.41452 m -0.41554,0.41452 -0.41452,0 m 0.83006,0.41554 -0.41554,-0.41554 m 0.41554,0.83005 0,-0.41451 m -0.41554,0.82903 0.41554,-0.41452 m -1.24458,0.41452 0.82904,0 m -1.24356,-0.41452 0.41452,0.41452" /><path
         inkscape:connector-curvature="0"
         id="path52"
         style="fill:none;stroke:#000000;stroke-width:0.21600001;stroke-linecap:round;stroke-linejoin:miter;stroke-miterlimit:4;stroke-opacity:1;stroke-dasharray:none"
         d="m 182.7292,311.35888 1.65909,0 m -0.83005,2.48915 0,-2.48915 m -0.82904,1.66011 0.82904,0.82904" /><path
         inkscape:connector-curvature="0"
         id="path56"
         style="fill:none;stroke:#000000;stroke-width:0.21600001;stroke-linecap:round;stroke-linejoin:miter;stroke-miterlimit:4;stroke-opacity:1;stroke-dasharray:none"
         d="m 157.69086,307.96174 1.6591,1.66011 m -1.24458,-2.07463 -0.41452,0.41452 m 1.24458,-0.41452 -0.83006,0 m 1.24458,0.41452 -0.41452,-0.41452 m 0.41452,2.07463 0,-1.66011 m -0.41452,2.07565 0.41452,-0.41554 m -1.24458,0.41554 0.83006,0 m -1.24458,-0.41554 0.41452,0.41554 m -0.41452,-2.07565 0,1.66011" /><path
         inkscape:connector-curvature="0"
         id="path60"
         style="fill:none;stroke:#000000;stroke-width:0.21600001;stroke-linecap:round;stroke-linejoin:miter;stroke-miterlimit:4;stroke-opacity:1;stroke-dasharray:none"
         d="m 192.87905,337.65042 -0.41554,-0.41452 m 1.24458,0.41452 -0.82904,0 m 1.24457,-0.41452 -0.41553,0.41452 m 0.41553,-0.82904 0,0.41452 m -1.66011,-2.07463 1.66011,1.66011 m 0,-1.66011 -1.66011,0" /><path
         inkscape:connector-curvature="0"
         id="path64"
         style="fill:none;stroke:#000000;stroke-width:0.21600001;stroke-linecap:round;stroke-linejoin:miter;stroke-miterlimit:4;stroke-opacity:1;stroke-dasharray:none"
         d="m 141.76456,328.88058 1.65909,0" /><path
         inkscape:connector-curvature="0"
         id="path488"
         style="fill:none;stroke:#000000;stroke-width:0.21600001;stroke-linecap:round;stroke-linejoin:miter;stroke-miterlimit:4;stroke-opacity:1;stroke-dasharray:none"
         d="m 165.65199,325.14604 c 0,-2.06854 1.67636,-3.74491 3.7449,-3.74491" /><path
         inkscape:connector-curvature="0"
         id="path492"
         style="fill:none;stroke:#000000;stroke-width:0.21600001;stroke-linecap:round;stroke-linejoin:miter;stroke-miterlimit:4;stroke-opacity:1;stroke-dasharray:none"
         d="m 169.39648,321.40164 0.57505,0" /><path
         inkscape:connector-curvature="0"
         id="path496"
         style="fill:none;stroke:#000000;stroke-width:0.21600001;stroke-linecap:round;stroke-linejoin:miter;stroke-miterlimit:4;stroke-opacity:1;stroke-dasharray:none"
         d="m 169.97194,321.40164 c 1.03426,0 1.87245,0.83717 1.87245,1.87143" /><path
         inkscape:connector-curvature="0"
         id="path500"
         style="fill:none;stroke:#000000;stroke-width:0.21600001;stroke-linecap:round;stroke-linejoin:miter;stroke-miterlimit:4;stroke-opacity:1;stroke-dasharray:none"
         d="m 171.84408,323.27287 0,0.14529" /><path
         inkscape:connector-curvature="0"
         id="path504"
         style="fill:none;stroke:#000000;stroke-width:0.21600001;stroke-linecap:round;stroke-linejoin:miter;stroke-miterlimit:4;stroke-opacity:1;stroke-dasharray:none"
         d="m 171.84408,323.41775 c 0,0.39725 -0.32206,0.72033 -0.71931,0.72033" /><path
         inkscape:connector-curvature="0"
         id="path508"
         style="fill:none;stroke:#000000;stroke-width:0.21600001;stroke-linecap:round;stroke-linejoin:miter;stroke-miterlimit:4;stroke-opacity:1;stroke-dasharray:none"
         d="m 171.12477,324.13808 -0.28752,0" /><path
         inkscape:connector-curvature="0"
         id="path512"
         style="fill:none;stroke:#000000;stroke-width:0.21600001;stroke-linecap:round;stroke-linejoin:miter;stroke-miterlimit:4;stroke-opacity:1;stroke-dasharray:none"
         d="m 170.83704,324.13808 c -1.19377,0 -2.16099,-0.96823 -2.16099,-2.16099" /><path
         inkscape:connector-curvature="0"
         id="path516"
         style="fill:none;stroke:#000000;stroke-width:0.21600001;stroke-linecap:round;stroke-linejoin:miter;stroke-miterlimit:4;stroke-opacity:1;stroke-dasharray:none"
         d="m 168.67615,321.97709 0,-1.87143" /><path
         inkscape:connector-curvature="0"
         id="path520"
         style="fill:none;stroke:#000000;stroke-width:0.21600001;stroke-linecap:round;stroke-linejoin:miter;stroke-miterlimit:4;stroke-opacity:1;stroke-dasharray:none"
         d="m 165.2204,316.64919 c 1.90902,0 3.45535,1.54734 3.45535,3.45636" /><path
         inkscape:connector-curvature="0"
         id="path524"
         style="fill:none;stroke:#000000;stroke-width:0.21600001;stroke-linecap:round;stroke-linejoin:miter;stroke-miterlimit:4;stroke-opacity:1;stroke-dasharray:none"
         d="m 163.92462,317.94497 c 0,-0.71525 0.58012,-1.29538 1.29537,-1.29538" /><path
         inkscape:connector-curvature="0"
         id="path528"
         style="fill:none;stroke:#000000;stroke-width:0.21600001;stroke-linecap:round;stroke-linejoin:miter;stroke-miterlimit:4;stroke-opacity:1;stroke-dasharray:none"
         d="m 165.50914,319.52939 c -0.87476,0 -1.58493,-0.70915 -1.58493,-1.58493" /><path
         inkscape:connector-curvature="0"
         id="path532"
         style="fill:none;stroke:#000000;stroke-width:0.21600001;stroke-linecap:round;stroke-linejoin:miter;stroke-miterlimit:4;stroke-opacity:1;stroke-dasharray:none"
         d="m 165.50914,319.52939 0.28752,0" /><path
         inkscape:connector-curvature="0"
         id="path536"
         style="fill:none;stroke:#000000;stroke-width:0.21600001;stroke-linecap:round;stroke-linejoin:miter;stroke-miterlimit:4;stroke-opacity:1;stroke-dasharray:none"
         d="m 167.95582,317.36952 c 0,1.19276 -0.96619,2.15997 -2.15896,2.15997" /><path
         inkscape:connector-curvature="0"
         id="path540"
         style="fill:none;stroke:#000000;stroke-width:0.21600001;stroke-linecap:round;stroke-linejoin:miter;stroke-miterlimit:4;stroke-opacity:1;stroke-dasharray:none"
         d="m 167.95582,317.36952 c 0.27838,-1.07389 1.37564,-1.71803 2.44852,-1.43965" /></g><g
       id="copper0"
       style="fill:none;stroke:#ff0000;stroke-opacity:1"><path
         inkscape:connector-curvature="0"
         id="path424"
         style="fill:none;stroke:#ff0000;stroke-opacity:1"
         d="m 186.58779,326.00535 c 2.55824,0 4.63084,-2.07362 4.63084,-4.63185 0,-2.55723 -2.0726,-4.62983 -4.63084,-4.62983 -2.55722,0 -4.63084,2.0726 -4.63084,4.62983 0,2.55823 2.07362,4.63185 4.63084,4.63185" /><path
         inkscape:connector-curvature="0"
         id="path436"
         style="fill:none;stroke:#ff0000;stroke-opacity:1"
         d="m 186.5818,347.61221 c 2.55722,0 4.63083,-2.07362 4.63083,-4.63084 0,-2.55824 -2.07361,-4.63084 -4.63083,-4.63084 -2.55824,0 -4.63084,2.0726 -4.63084,4.63084 0,2.55722 2.0726,4.63084 4.63084,4.63084" /><path
         inkscape:connector-curvature="0"
         id="path448"
         style="fill:none;stroke:#ff0000;stroke-opacity:1"
         d="m 149.16658,347.60632 c 2.55824,0 4.63084,-2.07362 4.63084,-4.63084 0,-2.55723 -2.0726,-4.63084 -4.63084,-4.63084 -2.55722,0 -4.63083,2.07361 -4.63083,4.63084 0,2.55722 2.07361,4.63084 4.63083,4.63084" /><path
         inkscape:connector-curvature="0"
         id="path460"
         style="fill:none;stroke:#ff0000;stroke-opacity:1"
         d="m 167.87942,358.38171 c 2.55723,0 4.63084,-2.07362 4.63084,-4.63084 0,-2.55824 -2.07361,-4.63084 -4.63084,-4.63084 -2.55824,0 -4.63084,2.0726 -4.63084,4.63084 0,2.55722 2.0726,4.63084 4.63084,4.63084" /><path
         inkscape:connector-curvature="0"
         id="path472"
         style="fill:none;stroke:#ff0000;stroke-opacity:1"
         d="m 167.86946,315.19664 c 2.55723,0 4.63084,-2.07362 4.63084,-4.63084 0,-2.55722 -2.07361,-4.62982 -4.63084,-4.62982 -2.55823,0 -4.63083,2.0726 -4.63083,4.62982 0,2.55722 2.0726,4.63084 4.63083,4.63084" /><path
         inkscape:connector-curvature="0"
         id="path484"
         style="fill:none;stroke:#ff0000;stroke-opacity:1"
         d="m 149.16658,325.99834 c 2.55723,0 4.63084,-2.0726 4.63084,-4.63084 0,-2.55722 -2.07361,-4.63084 -4.63084,-4.63084 -2.55823,0 -4.63083,2.07362 -4.63083,4.63084 0,2.55824 2.0726,4.63084 4.63083,4.63084" /></g></g></svg>